%TF.GenerationSoftware,KiCad,Pcbnew,(5.99.0-11691-gd9cf939ba1)*%
%TF.CreationDate,2021-08-18T15:14:57+12:00*%
%TF.ProjectId,pmod_ov7670,706d6f64-5f6f-4763-9736-37302e6b6963,rev?*%
%TF.SameCoordinates,Original*%
%TF.FileFunction,Copper,L2,Bot*%
%TF.FilePolarity,Positive*%
%FSLAX46Y46*%
G04 Gerber Fmt 4.6, Leading zero omitted, Abs format (unit mm)*
G04 Created by KiCad (PCBNEW (5.99.0-11691-gd9cf939ba1)) date 2021-08-18 15:14:57*
%MOMM*%
%LPD*%
G01*
G04 APERTURE LIST*
%TA.AperFunction,ComponentPad*%
%ADD10R,1.700000X1.700000*%
%TD*%
%TA.AperFunction,ComponentPad*%
%ADD11O,1.700000X1.700000*%
%TD*%
%TA.AperFunction,Conductor*%
%ADD12C,0.200000*%
%TD*%
G04 APERTURE END LIST*
D10*
%TO.P,J2,1,Pin_1*%
%TO.N,+3V3*%
X31825000Y-21700000D03*
D11*
%TO.P,J2,2,Pin_2*%
%TO.N,GND*%
X34365000Y-21700000D03*
%TO.P,J2,3,Pin_3*%
%TO.N,/CAM_SCL*%
X31825000Y-24240000D03*
%TO.P,J2,4,Pin_4*%
%TO.N,/F20*%
X34365000Y-24240000D03*
%TO.P,J2,5,Pin_5*%
%TO.N,/CAM_VSY*%
X31825000Y-26780000D03*
%TO.P,J2,6,Pin_6*%
%TO.N,/B20*%
X34365000Y-26780000D03*
%TO.P,J2,7,Pin_7*%
%TO.N,/CAM_PCLK*%
X31825000Y-29320000D03*
%TO.P,J2,8,Pin_8*%
%TO.N,/B18*%
X34365000Y-29320000D03*
%TO.P,J2,9,Pin_9*%
%TO.N,/CAM_D7*%
X31825000Y-31860000D03*
%TO.P,J2,10,Pin_10*%
%TO.N,/C17*%
X34365000Y-31860000D03*
%TO.P,J2,11,Pin_11*%
%TO.N,/CAM_D5*%
X31825000Y-34400000D03*
%TO.P,J2,12,Pin_12*%
%TO.N,/D3*%
X34365000Y-34400000D03*
%TO.P,J2,13,Pin_13*%
%TO.N,/C3*%
X31825000Y-36940000D03*
%TO.P,J2,14,Pin_14*%
%TO.N,/B4*%
X34365000Y-36940000D03*
%TO.P,J2,15,Pin_15*%
%TO.N,/A3*%
X31825000Y-39480000D03*
%TO.P,J2,16,Pin_16*%
%TO.N,/E3*%
X34365000Y-39480000D03*
%TO.P,J2,17,Pin_17*%
%TO.N,/B1*%
X31825000Y-42020000D03*
%TO.P,J2,18,Pin_18*%
%TO.N,/C2*%
X34365000Y-42020000D03*
%TD*%
D10*
%TO.P,J1,1,Pin_1*%
%TO.N,+3V3*%
X21900000Y-21700000D03*
D11*
%TO.P,J1,2,Pin_2*%
X24440000Y-21700000D03*
%TO.P,J1,3,Pin_3*%
%TO.N,GND*%
X21900000Y-24240000D03*
%TO.P,J1,4,Pin_4*%
X24440000Y-24240000D03*
%TO.P,J1,5,Pin_5*%
%TO.N,/CAM_SCL*%
X21900000Y-26780000D03*
%TO.P,J1,6,Pin_6*%
%TO.N,/F20*%
X24440000Y-26780000D03*
%TO.P,J1,7,Pin_7*%
%TO.N,/CAM_VSY*%
X21900000Y-29320000D03*
%TO.P,J1,8,Pin_8*%
%TO.N,/B20*%
X24440000Y-29320000D03*
%TO.P,J1,9,Pin_9*%
%TO.N,/CAM_PCLK*%
X21900000Y-31860000D03*
%TO.P,J1,10,Pin_10*%
%TO.N,/B18*%
X24440000Y-31860000D03*
%TO.P,J1,11,Pin_11*%
%TO.N,/CAM_D7*%
X21900000Y-34400000D03*
%TO.P,J1,12,Pin_12*%
%TO.N,/C17*%
X24440000Y-34400000D03*
%TO.P,J1,13,Pin_13*%
%TO.N,/CAM_D5*%
X21900000Y-36940000D03*
%TO.P,J1,14,Pin_14*%
%TO.N,/D3*%
X24440000Y-36940000D03*
%TO.P,J1,15,Pin_15*%
%TO.N,GND*%
X21900000Y-39480000D03*
%TO.P,J1,16,Pin_16*%
%TO.N,+5V*%
X24440000Y-39480000D03*
%TO.P,J1,17,Pin_17*%
%TO.N,/C3*%
X21900000Y-42020000D03*
%TO.P,J1,18,Pin_18*%
%TO.N,/B4*%
X24440000Y-42020000D03*
%TO.P,J1,19,Pin_19*%
%TO.N,+3V3*%
X21900000Y-44560000D03*
%TO.P,J1,20,Pin_20*%
X24440000Y-44560000D03*
%TO.P,J1,21,Pin_21*%
%TO.N,GND*%
X21900000Y-47100000D03*
%TO.P,J1,22,Pin_22*%
X24440000Y-47100000D03*
%TO.P,J1,23,Pin_23*%
%TO.N,/A3*%
X21900000Y-49640000D03*
%TO.P,J1,24,Pin_24*%
%TO.N,/E3*%
X24440000Y-49640000D03*
%TO.P,J1,25,Pin_25*%
%TO.N,/B1*%
X21900000Y-52180000D03*
%TO.P,J1,26,Pin_26*%
%TO.N,/C2*%
X24440000Y-52180000D03*
%TO.P,J1,27,Pin_27*%
%TO.N,/D2*%
X21900000Y-54720000D03*
%TO.P,J1,28,Pin_28*%
%TO.N,/C1*%
X24440000Y-54720000D03*
%TO.P,J1,29,Pin_29*%
%TO.N,/E2*%
X21900000Y-57260000D03*
%TO.P,J1,30,Pin_30*%
%TO.N,/D1*%
X24440000Y-57260000D03*
%TD*%
D12*
%TO.N,/F20*%
X29850006Y-26780000D02*
X24440000Y-26780000D01*
X31130006Y-25500000D02*
X29850006Y-26780000D01*
X33105000Y-25500000D02*
X31130006Y-25500000D01*
X34365000Y-24240000D02*
X33105000Y-25500000D01*
%TO.N,/B20*%
X31070006Y-28100000D02*
X29850006Y-29320000D01*
X33045000Y-28100000D02*
X31070006Y-28100000D01*
X34365000Y-26780000D02*
X33045000Y-28100000D01*
X29850006Y-29320000D02*
X24440000Y-29320000D01*
%TO.N,/B18*%
X31139023Y-30600000D02*
X29879023Y-31860000D01*
X29879023Y-31860000D02*
X24440000Y-31860000D01*
X33085000Y-30600000D02*
X31139023Y-30600000D01*
X34365000Y-29320000D02*
X33085000Y-30600000D01*
%TO.N,/E3*%
X24725007Y-49640000D02*
X24440000Y-49640000D01*
X27100000Y-47265007D02*
X24725007Y-49640000D01*
X31209673Y-40800000D02*
X27100000Y-44909673D01*
X33045000Y-40800000D02*
X31209673Y-40800000D01*
X27100000Y-44909673D02*
X27100000Y-47265007D01*
X34365000Y-39480000D02*
X33045000Y-40800000D01*
%TO.N,/D3*%
X31400000Y-35700000D02*
X30160000Y-36940000D01*
X30160000Y-36940000D02*
X24440000Y-36940000D01*
X33065000Y-35700000D02*
X31400000Y-35700000D01*
X34365000Y-34400000D02*
X33065000Y-35700000D01*
%TO.N,/C17*%
X29958367Y-34400000D02*
X24440000Y-34400000D01*
X31258367Y-33100000D02*
X29958367Y-34400000D01*
X33125000Y-33100000D02*
X31258367Y-33100000D01*
X34365000Y-31860000D02*
X33125000Y-33100000D01*
%TO.N,/B4*%
X31130006Y-38200000D02*
X27310006Y-42020000D01*
X33105000Y-38200000D02*
X31130006Y-38200000D01*
X34365000Y-36940000D02*
X33105000Y-38200000D01*
X27310006Y-42020000D02*
X24440000Y-42020000D01*
%TO.N,/B1*%
X23180000Y-50900000D02*
X21900000Y-52180000D01*
X24919994Y-50900000D02*
X23180000Y-50900000D01*
X31825000Y-43994994D02*
X24919994Y-50900000D01*
X31825000Y-42020000D02*
X31825000Y-43994994D01*
%TO.N,/A3*%
X25400001Y-48400000D02*
X23140000Y-48400000D01*
X23140000Y-48400000D02*
X21900000Y-49640000D01*
X26600000Y-47200001D02*
X25400001Y-48400000D01*
X26600000Y-44705000D02*
X26600000Y-47200001D01*
X31825000Y-39480000D02*
X26600000Y-44705000D01*
%TO.N,/C3*%
X28065000Y-40700000D02*
X23220000Y-40700000D01*
X23220000Y-40700000D02*
X21900000Y-42020000D01*
X31825000Y-36940000D02*
X28065000Y-40700000D01*
%TO.N,/CAM_D5*%
X23140000Y-35700000D02*
X21900000Y-36940000D01*
X30525000Y-35700000D02*
X23140000Y-35700000D01*
X31825000Y-34400000D02*
X30525000Y-35700000D01*
%TO.N,/CAM_D7*%
X30585000Y-33100000D02*
X23200000Y-33100000D01*
X31825000Y-31860000D02*
X30585000Y-33100000D01*
X23200000Y-33100000D02*
X21900000Y-34400000D01*
%TO.N,/CAM_PCLK*%
X23160000Y-30600000D02*
X21900000Y-31860000D01*
X30545000Y-30600000D02*
X23160000Y-30600000D01*
X31825000Y-29320000D02*
X30545000Y-30600000D01*
%TO.N,/CAM_VSY*%
X30605000Y-28000000D02*
X23220000Y-28000000D01*
X31825000Y-26780000D02*
X30605000Y-28000000D01*
X23220000Y-28000000D02*
X21900000Y-29320000D01*
%TO.N,/CAM_SCL*%
X23180000Y-25500000D02*
X21900000Y-26780000D01*
X30565000Y-25500000D02*
X23180000Y-25500000D01*
X31825000Y-24240000D02*
X30565000Y-25500000D01*
%TO.N,/C2*%
X34365000Y-42020000D02*
X24440000Y-51945000D01*
X24440000Y-51945000D02*
X24440000Y-52180000D01*
%TD*%
%TA.AperFunction,Conductor*%
%TO.N,GND*%
G36*
X37434121Y-18528002D02*
G01*
X37480614Y-18581658D01*
X37492000Y-18634000D01*
X37492000Y-60366000D01*
X37471998Y-60434121D01*
X37418342Y-60480614D01*
X37366000Y-60492000D01*
X18634000Y-60492000D01*
X18565879Y-60471998D01*
X18519386Y-60418342D01*
X18508000Y-60366000D01*
X18508000Y-26746695D01*
X20537251Y-26746695D01*
X20537548Y-26751848D01*
X20537548Y-26751851D01*
X20543011Y-26846590D01*
X20550110Y-26969715D01*
X20551247Y-26974761D01*
X20551248Y-26974767D01*
X20571119Y-27062939D01*
X20599222Y-27187639D01*
X20637461Y-27281811D01*
X20680783Y-27388500D01*
X20683266Y-27394616D01*
X20799987Y-27585088D01*
X20946250Y-27753938D01*
X21118126Y-27896632D01*
X21188595Y-27937811D01*
X21191445Y-27939476D01*
X21240169Y-27991114D01*
X21253240Y-28060897D01*
X21226509Y-28126669D01*
X21186055Y-28160027D01*
X21173607Y-28166507D01*
X21169474Y-28169610D01*
X21169471Y-28169612D01*
X21145247Y-28187800D01*
X20994965Y-28300635D01*
X20840629Y-28462138D01*
X20714743Y-28646680D01*
X20620688Y-28849305D01*
X20560989Y-29064570D01*
X20537251Y-29286695D01*
X20537548Y-29291848D01*
X20537548Y-29291851D01*
X20543011Y-29386590D01*
X20550110Y-29509715D01*
X20551247Y-29514761D01*
X20551248Y-29514767D01*
X20571119Y-29602939D01*
X20599222Y-29727639D01*
X20637461Y-29821811D01*
X20680783Y-29928500D01*
X20683266Y-29934616D01*
X20799987Y-30125088D01*
X20946250Y-30293938D01*
X21118126Y-30436632D01*
X21188595Y-30477811D01*
X21191445Y-30479476D01*
X21240169Y-30531114D01*
X21253240Y-30600897D01*
X21226509Y-30666669D01*
X21186055Y-30700027D01*
X21173607Y-30706507D01*
X21169474Y-30709610D01*
X21169471Y-30709612D01*
X21145247Y-30727800D01*
X20994965Y-30840635D01*
X20840629Y-31002138D01*
X20714743Y-31186680D01*
X20620688Y-31389305D01*
X20560989Y-31604570D01*
X20537251Y-31826695D01*
X20537548Y-31831848D01*
X20537548Y-31831851D01*
X20543011Y-31926590D01*
X20550110Y-32049715D01*
X20551247Y-32054761D01*
X20551248Y-32054767D01*
X20563857Y-32110715D01*
X20599222Y-32267639D01*
X20637461Y-32361811D01*
X20680783Y-32468500D01*
X20683266Y-32474616D01*
X20799987Y-32665088D01*
X20946250Y-32833938D01*
X21118126Y-32976632D01*
X21188595Y-33017811D01*
X21191445Y-33019476D01*
X21240169Y-33071114D01*
X21253240Y-33140897D01*
X21226509Y-33206669D01*
X21186055Y-33240027D01*
X21173607Y-33246507D01*
X21169474Y-33249610D01*
X21169471Y-33249612D01*
X21145247Y-33267800D01*
X20994965Y-33380635D01*
X20840629Y-33542138D01*
X20714743Y-33726680D01*
X20620688Y-33929305D01*
X20560989Y-34144570D01*
X20537251Y-34366695D01*
X20537548Y-34371848D01*
X20537548Y-34371851D01*
X20543011Y-34466590D01*
X20550110Y-34589715D01*
X20551247Y-34594761D01*
X20551248Y-34594767D01*
X20571119Y-34682939D01*
X20599222Y-34807639D01*
X20637461Y-34901811D01*
X20680783Y-35008500D01*
X20683266Y-35014616D01*
X20799987Y-35205088D01*
X20946250Y-35373938D01*
X21118126Y-35516632D01*
X21188595Y-35557811D01*
X21191445Y-35559476D01*
X21240169Y-35611114D01*
X21253240Y-35680897D01*
X21226509Y-35746669D01*
X21186055Y-35780027D01*
X21173607Y-35786507D01*
X21169474Y-35789610D01*
X21169471Y-35789612D01*
X21145247Y-35807800D01*
X20994965Y-35920635D01*
X20840629Y-36082138D01*
X20714743Y-36266680D01*
X20620688Y-36469305D01*
X20560989Y-36684570D01*
X20537251Y-36906695D01*
X20537548Y-36911848D01*
X20537548Y-36911851D01*
X20543011Y-37006590D01*
X20550110Y-37129715D01*
X20551247Y-37134761D01*
X20551248Y-37134767D01*
X20571119Y-37222939D01*
X20599222Y-37347639D01*
X20637461Y-37441811D01*
X20680783Y-37548500D01*
X20683266Y-37554616D01*
X20722521Y-37618675D01*
X20797291Y-37740688D01*
X20799987Y-37745088D01*
X20946250Y-37913938D01*
X21118126Y-38056632D01*
X21191445Y-38099476D01*
X21191955Y-38099774D01*
X21240679Y-38151412D01*
X21253750Y-38221195D01*
X21227019Y-38286967D01*
X21186562Y-38320327D01*
X21178457Y-38324546D01*
X21169738Y-38330036D01*
X20999433Y-38457905D01*
X20991726Y-38464748D01*
X20844590Y-38618717D01*
X20838104Y-38626727D01*
X20718098Y-38802649D01*
X20713000Y-38811623D01*
X20623338Y-39004783D01*
X20619775Y-39014470D01*
X20564389Y-39214183D01*
X20565912Y-39222607D01*
X20578292Y-39226000D01*
X22028000Y-39226000D01*
X22096121Y-39246002D01*
X22142614Y-39299658D01*
X22154000Y-39352000D01*
X22154000Y-39608000D01*
X22133998Y-39676121D01*
X22080342Y-39722614D01*
X22028000Y-39734000D01*
X20583225Y-39734000D01*
X20569694Y-39737973D01*
X20568257Y-39747966D01*
X20598565Y-39882446D01*
X20601645Y-39892275D01*
X20681770Y-40089603D01*
X20686413Y-40098794D01*
X20797694Y-40280388D01*
X20803777Y-40288699D01*
X20943213Y-40449667D01*
X20950580Y-40456883D01*
X21114434Y-40592916D01*
X21122881Y-40598831D01*
X21191969Y-40639203D01*
X21240693Y-40690842D01*
X21253764Y-40760625D01*
X21227033Y-40826396D01*
X21186584Y-40859752D01*
X21173607Y-40866507D01*
X21169474Y-40869610D01*
X21169471Y-40869612D01*
X21145247Y-40887800D01*
X20994965Y-41000635D01*
X20840629Y-41162138D01*
X20714743Y-41346680D01*
X20620688Y-41549305D01*
X20560989Y-41764570D01*
X20537251Y-41986695D01*
X20537548Y-41991848D01*
X20537548Y-41991851D01*
X20543011Y-42086590D01*
X20550110Y-42209715D01*
X20551247Y-42214761D01*
X20551248Y-42214767D01*
X20571119Y-42302939D01*
X20599222Y-42427639D01*
X20637461Y-42521811D01*
X20680783Y-42628500D01*
X20683266Y-42634616D01*
X20722521Y-42698675D01*
X20797291Y-42820688D01*
X20799987Y-42825088D01*
X20946250Y-42993938D01*
X21118126Y-43136632D01*
X21188595Y-43177811D01*
X21191445Y-43179476D01*
X21240169Y-43231114D01*
X21253240Y-43300897D01*
X21226509Y-43366669D01*
X21186055Y-43400027D01*
X21173607Y-43406507D01*
X21169474Y-43409610D01*
X21169471Y-43409612D01*
X21145247Y-43427800D01*
X20994965Y-43540635D01*
X20840629Y-43702138D01*
X20714743Y-43886680D01*
X20620688Y-44089305D01*
X20560989Y-44304570D01*
X20537251Y-44526695D01*
X20537548Y-44531848D01*
X20537548Y-44531851D01*
X20538936Y-44555916D01*
X20550110Y-44749715D01*
X20551247Y-44754761D01*
X20551248Y-44754767D01*
X20572275Y-44848069D01*
X20599222Y-44967639D01*
X20683266Y-45174616D01*
X20734019Y-45257438D01*
X20797291Y-45360688D01*
X20799987Y-45365088D01*
X20946250Y-45533938D01*
X21118126Y-45676632D01*
X21191955Y-45719774D01*
X21240679Y-45771412D01*
X21253750Y-45841195D01*
X21227019Y-45906967D01*
X21186562Y-45940327D01*
X21178457Y-45944546D01*
X21169738Y-45950036D01*
X20999433Y-46077905D01*
X20991726Y-46084748D01*
X20844590Y-46238717D01*
X20838104Y-46246727D01*
X20718098Y-46422649D01*
X20713000Y-46431623D01*
X20623338Y-46624783D01*
X20619775Y-46634470D01*
X20564389Y-46834183D01*
X20565912Y-46842607D01*
X20578292Y-46846000D01*
X24568000Y-46846000D01*
X24636121Y-46866002D01*
X24682614Y-46919658D01*
X24694000Y-46972000D01*
X24694000Y-47228000D01*
X24673998Y-47296121D01*
X24620342Y-47342614D01*
X24568000Y-47354000D01*
X20583225Y-47354000D01*
X20569694Y-47357973D01*
X20568257Y-47367966D01*
X20598565Y-47502446D01*
X20601645Y-47512275D01*
X20681770Y-47709603D01*
X20686413Y-47718794D01*
X20797694Y-47900388D01*
X20803777Y-47908699D01*
X20943213Y-48069667D01*
X20950580Y-48076883D01*
X21114434Y-48212916D01*
X21122881Y-48218831D01*
X21191969Y-48259203D01*
X21240693Y-48310842D01*
X21253764Y-48380625D01*
X21227033Y-48446396D01*
X21186584Y-48479752D01*
X21173607Y-48486507D01*
X21169474Y-48489610D01*
X21169471Y-48489612D01*
X20999100Y-48617530D01*
X20994965Y-48620635D01*
X20840629Y-48782138D01*
X20714743Y-48966680D01*
X20620688Y-49169305D01*
X20560989Y-49384570D01*
X20537251Y-49606695D01*
X20550110Y-49829715D01*
X20551247Y-49834761D01*
X20551248Y-49834767D01*
X20575304Y-49941508D01*
X20599222Y-50047639D01*
X20683266Y-50254616D01*
X20799987Y-50445088D01*
X20946250Y-50613938D01*
X21118126Y-50756632D01*
X21188595Y-50797811D01*
X21191445Y-50799476D01*
X21240169Y-50851114D01*
X21253240Y-50920897D01*
X21226509Y-50986669D01*
X21186055Y-51020027D01*
X21173607Y-51026507D01*
X21169474Y-51029610D01*
X21169471Y-51029612D01*
X20999100Y-51157530D01*
X20994965Y-51160635D01*
X20840629Y-51322138D01*
X20714743Y-51506680D01*
X20620688Y-51709305D01*
X20560989Y-51924570D01*
X20537251Y-52146695D01*
X20537548Y-52151848D01*
X20537548Y-52151851D01*
X20543011Y-52246590D01*
X20550110Y-52369715D01*
X20551247Y-52374761D01*
X20551248Y-52374767D01*
X20571119Y-52462939D01*
X20599222Y-52587639D01*
X20683266Y-52794616D01*
X20734019Y-52877438D01*
X20797291Y-52980688D01*
X20799987Y-52985088D01*
X20946250Y-53153938D01*
X21118126Y-53296632D01*
X21188595Y-53337811D01*
X21191445Y-53339476D01*
X21240169Y-53391114D01*
X21253240Y-53460897D01*
X21226509Y-53526669D01*
X21186055Y-53560027D01*
X21173607Y-53566507D01*
X21169474Y-53569610D01*
X21169471Y-53569612D01*
X21145247Y-53587800D01*
X20994965Y-53700635D01*
X20840629Y-53862138D01*
X20714743Y-54046680D01*
X20620688Y-54249305D01*
X20560989Y-54464570D01*
X20537251Y-54686695D01*
X20537548Y-54691848D01*
X20537548Y-54691851D01*
X20543011Y-54786590D01*
X20550110Y-54909715D01*
X20551247Y-54914761D01*
X20551248Y-54914767D01*
X20571119Y-55002939D01*
X20599222Y-55127639D01*
X20683266Y-55334616D01*
X20734019Y-55417438D01*
X20797291Y-55520688D01*
X20799987Y-55525088D01*
X20946250Y-55693938D01*
X21118126Y-55836632D01*
X21188595Y-55877811D01*
X21191445Y-55879476D01*
X21240169Y-55931114D01*
X21253240Y-56000897D01*
X21226509Y-56066669D01*
X21186055Y-56100027D01*
X21173607Y-56106507D01*
X21169474Y-56109610D01*
X21169471Y-56109612D01*
X21145247Y-56127800D01*
X20994965Y-56240635D01*
X20840629Y-56402138D01*
X20714743Y-56586680D01*
X20620688Y-56789305D01*
X20560989Y-57004570D01*
X20537251Y-57226695D01*
X20537548Y-57231848D01*
X20537548Y-57231851D01*
X20543011Y-57326590D01*
X20550110Y-57449715D01*
X20551247Y-57454761D01*
X20551248Y-57454767D01*
X20571119Y-57542939D01*
X20599222Y-57667639D01*
X20683266Y-57874616D01*
X20734019Y-57957438D01*
X20797291Y-58060688D01*
X20799987Y-58065088D01*
X20946250Y-58233938D01*
X21118126Y-58376632D01*
X21311000Y-58489338D01*
X21519692Y-58569030D01*
X21524760Y-58570061D01*
X21524763Y-58570062D01*
X21632017Y-58591883D01*
X21738597Y-58613567D01*
X21743772Y-58613757D01*
X21743774Y-58613757D01*
X21956673Y-58621564D01*
X21956677Y-58621564D01*
X21961837Y-58621753D01*
X21966957Y-58621097D01*
X21966959Y-58621097D01*
X22178288Y-58594025D01*
X22178289Y-58594025D01*
X22183416Y-58593368D01*
X22188366Y-58591883D01*
X22392429Y-58530661D01*
X22392434Y-58530659D01*
X22397384Y-58529174D01*
X22597994Y-58430896D01*
X22779860Y-58301173D01*
X22938096Y-58143489D01*
X22997594Y-58060689D01*
X23068453Y-57962077D01*
X23069776Y-57963028D01*
X23116645Y-57919857D01*
X23186580Y-57907625D01*
X23252026Y-57935144D01*
X23279875Y-57966994D01*
X23339987Y-58065088D01*
X23486250Y-58233938D01*
X23658126Y-58376632D01*
X23851000Y-58489338D01*
X24059692Y-58569030D01*
X24064760Y-58570061D01*
X24064763Y-58570062D01*
X24172017Y-58591883D01*
X24278597Y-58613567D01*
X24283772Y-58613757D01*
X24283774Y-58613757D01*
X24496673Y-58621564D01*
X24496677Y-58621564D01*
X24501837Y-58621753D01*
X24506957Y-58621097D01*
X24506959Y-58621097D01*
X24718288Y-58594025D01*
X24718289Y-58594025D01*
X24723416Y-58593368D01*
X24728366Y-58591883D01*
X24932429Y-58530661D01*
X24932434Y-58530659D01*
X24937384Y-58529174D01*
X25137994Y-58430896D01*
X25319860Y-58301173D01*
X25478096Y-58143489D01*
X25537594Y-58060689D01*
X25605435Y-57966277D01*
X25608453Y-57962077D01*
X25629320Y-57919857D01*
X25705136Y-57766453D01*
X25705137Y-57766451D01*
X25707430Y-57761811D01*
X25772370Y-57548069D01*
X25801529Y-57326590D01*
X25803156Y-57260000D01*
X25784852Y-57037361D01*
X25730431Y-56820702D01*
X25641354Y-56615840D01*
X25520014Y-56428277D01*
X25369670Y-56263051D01*
X25365619Y-56259852D01*
X25365615Y-56259848D01*
X25198414Y-56127800D01*
X25198410Y-56127798D01*
X25194359Y-56124598D01*
X25153053Y-56101796D01*
X25103084Y-56051364D01*
X25088312Y-55981921D01*
X25113428Y-55915516D01*
X25140780Y-55888909D01*
X25184603Y-55857650D01*
X25319860Y-55761173D01*
X25478096Y-55603489D01*
X25537594Y-55520689D01*
X25605435Y-55426277D01*
X25608453Y-55422077D01*
X25629320Y-55379857D01*
X25705136Y-55226453D01*
X25705137Y-55226451D01*
X25707430Y-55221811D01*
X25772370Y-55008069D01*
X25801529Y-54786590D01*
X25803156Y-54720000D01*
X25784852Y-54497361D01*
X25730431Y-54280702D01*
X25641354Y-54075840D01*
X25520014Y-53888277D01*
X25369670Y-53723051D01*
X25365619Y-53719852D01*
X25365615Y-53719848D01*
X25198414Y-53587800D01*
X25198410Y-53587798D01*
X25194359Y-53584598D01*
X25153053Y-53561796D01*
X25103084Y-53511364D01*
X25088312Y-53441921D01*
X25113428Y-53375516D01*
X25140780Y-53348909D01*
X25184603Y-53317650D01*
X25319860Y-53221173D01*
X25478096Y-53063489D01*
X25537594Y-52980689D01*
X25605435Y-52886277D01*
X25608453Y-52882077D01*
X25629320Y-52839857D01*
X25705136Y-52686453D01*
X25705137Y-52686451D01*
X25707430Y-52681811D01*
X25772370Y-52468069D01*
X25801529Y-52246590D01*
X25803156Y-52180000D01*
X25784852Y-51957361D01*
X25730431Y-51740702D01*
X25696278Y-51662155D01*
X25687457Y-51591708D01*
X25722732Y-51522817D01*
X33880171Y-43365378D01*
X33942483Y-43331352D01*
X33994385Y-43331002D01*
X34203597Y-43373567D01*
X34208772Y-43373757D01*
X34208774Y-43373757D01*
X34421673Y-43381564D01*
X34421677Y-43381564D01*
X34426837Y-43381753D01*
X34431957Y-43381097D01*
X34431959Y-43381097D01*
X34643288Y-43354025D01*
X34643289Y-43354025D01*
X34648416Y-43353368D01*
X34721799Y-43331352D01*
X34857429Y-43290661D01*
X34857434Y-43290659D01*
X34862384Y-43289174D01*
X35062994Y-43190896D01*
X35244860Y-43061173D01*
X35403096Y-42903489D01*
X35462594Y-42820689D01*
X35530435Y-42726277D01*
X35533453Y-42722077D01*
X35554320Y-42679857D01*
X35630136Y-42526453D01*
X35630137Y-42526451D01*
X35632430Y-42521811D01*
X35697370Y-42308069D01*
X35726529Y-42086590D01*
X35728156Y-42020000D01*
X35709852Y-41797361D01*
X35655431Y-41580702D01*
X35566354Y-41375840D01*
X35445014Y-41188277D01*
X35294670Y-41023051D01*
X35290619Y-41019852D01*
X35290615Y-41019848D01*
X35123414Y-40887800D01*
X35123410Y-40887798D01*
X35119359Y-40884598D01*
X35078053Y-40861796D01*
X35028084Y-40811364D01*
X35013312Y-40741921D01*
X35038428Y-40675516D01*
X35065780Y-40648909D01*
X35144279Y-40592916D01*
X35244860Y-40521173D01*
X35403096Y-40363489D01*
X35533453Y-40182077D01*
X35580806Y-40086266D01*
X35630136Y-39986453D01*
X35630137Y-39986451D01*
X35632430Y-39981811D01*
X35697370Y-39768069D01*
X35726529Y-39546590D01*
X35728156Y-39480000D01*
X35709852Y-39257361D01*
X35655431Y-39040702D01*
X35566354Y-38835840D01*
X35445014Y-38648277D01*
X35294670Y-38483051D01*
X35290619Y-38479852D01*
X35290615Y-38479848D01*
X35123414Y-38347800D01*
X35123410Y-38347798D01*
X35119359Y-38344598D01*
X35078053Y-38321796D01*
X35028084Y-38271364D01*
X35013312Y-38201921D01*
X35038428Y-38135516D01*
X35065780Y-38108909D01*
X35109603Y-38077650D01*
X35244860Y-37981173D01*
X35403096Y-37823489D01*
X35462594Y-37740689D01*
X35530435Y-37646277D01*
X35533453Y-37642077D01*
X35554320Y-37599857D01*
X35630136Y-37446453D01*
X35630137Y-37446451D01*
X35632430Y-37441811D01*
X35697370Y-37228069D01*
X35726529Y-37006590D01*
X35728156Y-36940000D01*
X35709852Y-36717361D01*
X35655431Y-36500702D01*
X35566354Y-36295840D01*
X35445014Y-36108277D01*
X35294670Y-35943051D01*
X35290619Y-35939852D01*
X35290615Y-35939848D01*
X35123414Y-35807800D01*
X35123410Y-35807798D01*
X35119359Y-35804598D01*
X35078053Y-35781796D01*
X35028084Y-35731364D01*
X35013312Y-35661921D01*
X35038428Y-35595516D01*
X35065780Y-35568909D01*
X35109603Y-35537650D01*
X35244860Y-35441173D01*
X35403096Y-35283489D01*
X35462594Y-35200689D01*
X35530435Y-35106277D01*
X35533453Y-35102077D01*
X35538681Y-35091500D01*
X35630136Y-34906453D01*
X35630137Y-34906451D01*
X35632430Y-34901811D01*
X35697370Y-34688069D01*
X35726529Y-34466590D01*
X35728156Y-34400000D01*
X35709852Y-34177361D01*
X35655431Y-33960702D01*
X35566354Y-33755840D01*
X35445014Y-33568277D01*
X35294670Y-33403051D01*
X35290619Y-33399852D01*
X35290615Y-33399848D01*
X35123414Y-33267800D01*
X35123410Y-33267798D01*
X35119359Y-33264598D01*
X35078053Y-33241796D01*
X35028084Y-33191364D01*
X35013312Y-33121921D01*
X35038428Y-33055516D01*
X35065780Y-33028909D01*
X35109603Y-32997650D01*
X35244860Y-32901173D01*
X35403096Y-32743489D01*
X35462594Y-32660689D01*
X35530435Y-32566277D01*
X35533453Y-32562077D01*
X35570930Y-32486249D01*
X35630136Y-32366453D01*
X35630137Y-32366451D01*
X35632430Y-32361811D01*
X35697370Y-32148069D01*
X35726529Y-31926590D01*
X35728156Y-31860000D01*
X35709852Y-31637361D01*
X35655431Y-31420702D01*
X35566354Y-31215840D01*
X35445014Y-31028277D01*
X35294670Y-30863051D01*
X35290619Y-30859852D01*
X35290615Y-30859848D01*
X35123414Y-30727800D01*
X35123410Y-30727798D01*
X35119359Y-30724598D01*
X35078053Y-30701796D01*
X35028084Y-30651364D01*
X35013312Y-30581921D01*
X35038428Y-30515516D01*
X35065780Y-30488909D01*
X35109603Y-30457650D01*
X35244860Y-30361173D01*
X35403096Y-30203489D01*
X35462594Y-30120689D01*
X35530435Y-30026277D01*
X35533453Y-30022077D01*
X35579702Y-29928500D01*
X35630136Y-29826453D01*
X35630137Y-29826451D01*
X35632430Y-29821811D01*
X35697370Y-29608069D01*
X35726529Y-29386590D01*
X35728156Y-29320000D01*
X35709852Y-29097361D01*
X35655431Y-28880702D01*
X35566354Y-28675840D01*
X35445014Y-28488277D01*
X35294670Y-28323051D01*
X35290619Y-28319852D01*
X35290615Y-28319848D01*
X35123414Y-28187800D01*
X35123410Y-28187798D01*
X35119359Y-28184598D01*
X35078053Y-28161796D01*
X35028084Y-28111364D01*
X35013312Y-28041921D01*
X35038428Y-27975516D01*
X35065780Y-27948909D01*
X35109603Y-27917650D01*
X35244860Y-27821173D01*
X35403096Y-27663489D01*
X35462594Y-27580689D01*
X35530435Y-27486277D01*
X35533453Y-27482077D01*
X35579702Y-27388500D01*
X35630136Y-27286453D01*
X35630137Y-27286451D01*
X35632430Y-27281811D01*
X35697370Y-27068069D01*
X35726529Y-26846590D01*
X35728156Y-26780000D01*
X35709852Y-26557361D01*
X35655431Y-26340702D01*
X35566354Y-26135840D01*
X35445014Y-25948277D01*
X35294670Y-25783051D01*
X35290619Y-25779852D01*
X35290615Y-25779848D01*
X35123414Y-25647800D01*
X35123410Y-25647798D01*
X35119359Y-25644598D01*
X35078053Y-25621796D01*
X35028084Y-25571364D01*
X35013312Y-25501921D01*
X35038428Y-25435516D01*
X35065780Y-25408909D01*
X35144279Y-25352916D01*
X35244860Y-25281173D01*
X35403096Y-25123489D01*
X35444397Y-25066013D01*
X35530435Y-24946277D01*
X35533453Y-24942077D01*
X35559873Y-24888621D01*
X35630136Y-24746453D01*
X35630137Y-24746451D01*
X35632430Y-24741811D01*
X35697370Y-24528069D01*
X35726529Y-24306590D01*
X35728156Y-24240000D01*
X35709852Y-24017361D01*
X35655431Y-23800702D01*
X35566354Y-23595840D01*
X35445014Y-23408277D01*
X35294670Y-23243051D01*
X35290619Y-23239852D01*
X35290615Y-23239848D01*
X35123414Y-23107800D01*
X35123410Y-23107798D01*
X35119359Y-23104598D01*
X35077569Y-23081529D01*
X35027598Y-23031097D01*
X35012826Y-22961654D01*
X35037942Y-22895248D01*
X35065294Y-22868641D01*
X35240328Y-22743792D01*
X35248200Y-22737139D01*
X35399052Y-22586812D01*
X35405730Y-22578965D01*
X35530003Y-22406020D01*
X35535313Y-22397183D01*
X35629670Y-22206267D01*
X35633469Y-22196672D01*
X35695377Y-21992910D01*
X35697555Y-21982837D01*
X35698986Y-21971962D01*
X35696775Y-21957778D01*
X35683617Y-21954000D01*
X34237000Y-21954000D01*
X34168879Y-21933998D01*
X34122386Y-21880342D01*
X34111000Y-21828000D01*
X34111000Y-20384989D01*
X34619000Y-20384989D01*
X34619000Y-21427885D01*
X34623475Y-21443124D01*
X34624865Y-21444329D01*
X34632548Y-21446000D01*
X35683344Y-21446000D01*
X35696875Y-21442027D01*
X35698180Y-21432947D01*
X35656214Y-21265875D01*
X35652894Y-21256124D01*
X35567972Y-21060814D01*
X35563105Y-21051739D01*
X35447426Y-20872926D01*
X35441136Y-20864757D01*
X35297806Y-20707240D01*
X35290273Y-20700215D01*
X35123139Y-20568222D01*
X35114552Y-20562517D01*
X34928117Y-20459599D01*
X34918705Y-20455369D01*
X34717959Y-20384280D01*
X34707988Y-20381646D01*
X34636837Y-20368972D01*
X34623540Y-20370432D01*
X34619000Y-20384989D01*
X34111000Y-20384989D01*
X34111000Y-20383102D01*
X34107082Y-20369758D01*
X34092806Y-20367771D01*
X34054324Y-20373660D01*
X34044288Y-20376051D01*
X33841868Y-20442212D01*
X33832359Y-20446209D01*
X33643463Y-20544542D01*
X33634738Y-20550036D01*
X33464433Y-20677905D01*
X33456726Y-20684748D01*
X33379478Y-20765584D01*
X33317954Y-20801014D01*
X33247042Y-20797557D01*
X33189255Y-20756311D01*
X33170402Y-20722763D01*
X33128767Y-20611703D01*
X33125615Y-20603295D01*
X33038261Y-20486739D01*
X32921705Y-20399385D01*
X32785316Y-20348255D01*
X32723134Y-20341500D01*
X30926866Y-20341500D01*
X30864684Y-20348255D01*
X30728295Y-20399385D01*
X30611739Y-20486739D01*
X30524385Y-20603295D01*
X30473255Y-20739684D01*
X30466500Y-20801866D01*
X30466500Y-22598134D01*
X30473255Y-22660316D01*
X30524385Y-22796705D01*
X30611739Y-22913261D01*
X30728295Y-23000615D01*
X30736704Y-23003767D01*
X30736705Y-23003768D01*
X30845451Y-23044535D01*
X30902216Y-23087176D01*
X30926916Y-23153738D01*
X30911709Y-23223087D01*
X30892316Y-23249568D01*
X30765629Y-23382138D01*
X30762720Y-23386403D01*
X30762714Y-23386411D01*
X30750409Y-23404450D01*
X30639743Y-23566680D01*
X30545688Y-23769305D01*
X30485989Y-23984570D01*
X30462251Y-24206695D01*
X30462548Y-24211848D01*
X30462548Y-24211851D01*
X30468011Y-24306590D01*
X30475110Y-24429715D01*
X30476247Y-24434762D01*
X30476248Y-24434766D01*
X30514956Y-24606521D01*
X30510420Y-24677372D01*
X30481134Y-24723317D01*
X30349856Y-24854595D01*
X30287544Y-24888621D01*
X30260761Y-24891500D01*
X25831397Y-24891500D01*
X25763276Y-24871498D01*
X25716783Y-24817842D01*
X25706679Y-24747568D01*
X25710839Y-24728871D01*
X25770377Y-24532910D01*
X25772555Y-24522837D01*
X25773986Y-24511962D01*
X25771775Y-24497778D01*
X25758617Y-24494000D01*
X20583225Y-24494000D01*
X20569694Y-24497973D01*
X20568257Y-24507966D01*
X20598565Y-24642446D01*
X20601645Y-24652275D01*
X20681770Y-24849603D01*
X20686413Y-24858794D01*
X20797694Y-25040388D01*
X20803777Y-25048699D01*
X20943213Y-25209667D01*
X20950580Y-25216883D01*
X21114434Y-25352916D01*
X21122881Y-25358831D01*
X21191969Y-25399203D01*
X21240693Y-25450842D01*
X21253764Y-25520625D01*
X21227033Y-25586396D01*
X21186584Y-25619752D01*
X21173607Y-25626507D01*
X21169474Y-25629610D01*
X21169471Y-25629612D01*
X21145247Y-25647800D01*
X20994965Y-25760635D01*
X20840629Y-25922138D01*
X20714743Y-26106680D01*
X20620688Y-26309305D01*
X20560989Y-26524570D01*
X20537251Y-26746695D01*
X18508000Y-26746695D01*
X18508000Y-20801866D01*
X20541500Y-20801866D01*
X20541500Y-22598134D01*
X20548255Y-22660316D01*
X20599385Y-22796705D01*
X20686739Y-22913261D01*
X20803295Y-23000615D01*
X20811704Y-23003767D01*
X20811705Y-23003768D01*
X20920960Y-23044726D01*
X20977725Y-23087367D01*
X21002425Y-23153929D01*
X20987218Y-23223278D01*
X20967825Y-23249759D01*
X20844590Y-23378717D01*
X20838104Y-23386727D01*
X20718098Y-23562649D01*
X20713000Y-23571623D01*
X20623338Y-23764783D01*
X20619775Y-23774470D01*
X20564389Y-23974183D01*
X20565912Y-23982607D01*
X20578292Y-23986000D01*
X25758344Y-23986000D01*
X25771875Y-23982027D01*
X25773180Y-23972947D01*
X25731214Y-23805875D01*
X25727894Y-23796124D01*
X25642972Y-23600814D01*
X25638105Y-23591739D01*
X25522426Y-23412926D01*
X25516136Y-23404757D01*
X25372806Y-23247240D01*
X25365273Y-23240215D01*
X25198139Y-23108222D01*
X25189556Y-23102520D01*
X25152602Y-23082120D01*
X25102631Y-23031687D01*
X25087859Y-22962245D01*
X25112975Y-22895839D01*
X25140327Y-22869232D01*
X25163797Y-22852491D01*
X25319860Y-22741173D01*
X25478096Y-22583489D01*
X25608453Y-22402077D01*
X25707430Y-22201811D01*
X25772370Y-21988069D01*
X25801529Y-21766590D01*
X25803156Y-21700000D01*
X25784852Y-21477361D01*
X25730431Y-21260702D01*
X25641354Y-21055840D01*
X25520014Y-20868277D01*
X25369670Y-20703051D01*
X25365619Y-20699852D01*
X25365615Y-20699848D01*
X25198414Y-20567800D01*
X25198410Y-20567798D01*
X25194359Y-20564598D01*
X25158028Y-20544542D01*
X25142136Y-20535769D01*
X24998789Y-20456638D01*
X24993920Y-20454914D01*
X24993916Y-20454912D01*
X24793087Y-20383795D01*
X24793083Y-20383794D01*
X24788212Y-20382069D01*
X24783119Y-20381162D01*
X24783116Y-20381161D01*
X24573373Y-20343800D01*
X24573367Y-20343799D01*
X24568284Y-20342894D01*
X24494452Y-20341992D01*
X24350081Y-20340228D01*
X24350079Y-20340228D01*
X24344911Y-20340165D01*
X24124091Y-20373955D01*
X23911756Y-20443357D01*
X23713607Y-20546507D01*
X23709474Y-20549610D01*
X23709471Y-20549612D01*
X23539100Y-20677530D01*
X23534965Y-20680635D01*
X23462648Y-20756311D01*
X23454283Y-20765064D01*
X23392759Y-20800494D01*
X23321846Y-20797037D01*
X23264060Y-20755791D01*
X23245207Y-20722243D01*
X23203767Y-20611703D01*
X23200615Y-20603295D01*
X23113261Y-20486739D01*
X22996705Y-20399385D01*
X22860316Y-20348255D01*
X22798134Y-20341500D01*
X21001866Y-20341500D01*
X20939684Y-20348255D01*
X20803295Y-20399385D01*
X20686739Y-20486739D01*
X20599385Y-20603295D01*
X20548255Y-20739684D01*
X20541500Y-20801866D01*
X18508000Y-20801866D01*
X18508000Y-18634000D01*
X18528002Y-18565879D01*
X18581658Y-18519386D01*
X18634000Y-18508000D01*
X37366000Y-18508000D01*
X37434121Y-18528002D01*
G37*
%TD.AperFunction*%
%TD*%
M02*
