%TF.GenerationSoftware,KiCad,Pcbnew,(5.99.0-11691-gd9cf939ba1)*%
%TF.CreationDate,2021-08-18T15:14:57+12:00*%
%TF.ProjectId,pmod_ov7670,706d6f64-5f6f-4763-9736-37302e6b6963,rev?*%
%TF.SameCoordinates,Original*%
%TF.FileFunction,Soldermask,Top*%
%TF.FilePolarity,Negative*%
%FSLAX46Y46*%
G04 Gerber Fmt 4.6, Leading zero omitted, Abs format (unit mm)*
G04 Created by KiCad (PCBNEW (5.99.0-11691-gd9cf939ba1)) date 2021-08-18 15:14:57*
%MOMM*%
%LPD*%
G01*
G04 APERTURE LIST*
%ADD10R,1.700000X1.700000*%
%ADD11O,1.700000X1.700000*%
G04 APERTURE END LIST*
D10*
%TO.C,J2*%
X31825000Y-21700000D03*
D11*
X34365000Y-21700000D03*
X31825000Y-24240000D03*
X34365000Y-24240000D03*
X31825000Y-26780000D03*
X34365000Y-26780000D03*
X31825000Y-29320000D03*
X34365000Y-29320000D03*
X31825000Y-31860000D03*
X34365000Y-31860000D03*
X31825000Y-34400000D03*
X34365000Y-34400000D03*
X31825000Y-36940000D03*
X34365000Y-36940000D03*
X31825000Y-39480000D03*
X34365000Y-39480000D03*
X31825000Y-42020000D03*
X34365000Y-42020000D03*
%TD*%
D10*
%TO.C,J1*%
X21900000Y-21700000D03*
D11*
X24440000Y-21700000D03*
X21900000Y-24240000D03*
X24440000Y-24240000D03*
X21900000Y-26780000D03*
X24440000Y-26780000D03*
X21900000Y-29320000D03*
X24440000Y-29320000D03*
X21900000Y-31860000D03*
X24440000Y-31860000D03*
X21900000Y-34400000D03*
X24440000Y-34400000D03*
X21900000Y-36940000D03*
X24440000Y-36940000D03*
X21900000Y-39480000D03*
X24440000Y-39480000D03*
X21900000Y-42020000D03*
X24440000Y-42020000D03*
X21900000Y-44560000D03*
X24440000Y-44560000D03*
X21900000Y-47100000D03*
X24440000Y-47100000D03*
X21900000Y-49640000D03*
X24440000Y-49640000D03*
X21900000Y-52180000D03*
X24440000Y-52180000D03*
X21900000Y-54720000D03*
X24440000Y-54720000D03*
X21900000Y-57260000D03*
X24440000Y-57260000D03*
%TD*%
M02*
