M48
; DRILL file {KiCad (5.99.0-11691-gd9cf939ba1)} date Wed Aug 18 15:15:57 2021
; FORMAT={-:-/ absolute / inch / decimal}
; #@! TF.CreationDate,2021-08-18T15:15:57+12:00
; #@! TF.GenerationSoftware,Kicad,Pcbnew,(5.99.0-11691-gd9cf939ba1)
; #@! TF.FileFunction,MixedPlating,1,2
FMAT,2
INCH
; #@! TA.AperFunction,Plated,PTH,ComponentDrill
T1C0.0394
%
G90
G05
T1
X0.8622Y-0.8543
X0.8622Y-0.9543
X0.8622Y-1.0543
X0.8622Y-1.1543
X0.8622Y-1.2543
X0.8622Y-1.3543
X0.8622Y-1.4543
X0.8622Y-1.5543
X0.8622Y-1.6543
X0.8622Y-1.7543
X0.8622Y-1.8543
X0.8622Y-1.9543
X0.8622Y-2.0543
X0.8622Y-2.1543
X0.8622Y-2.2543
X0.9622Y-0.8543
X0.9622Y-0.9543
X0.9622Y-1.0543
X0.9622Y-1.1543
X0.9622Y-1.2543
X0.9622Y-1.3543
X0.9622Y-1.4543
X0.9622Y-1.5543
X0.9622Y-1.6543
X0.9622Y-1.7543
X0.9622Y-1.8543
X0.9622Y-1.9543
X0.9622Y-2.0543
X0.9622Y-2.1543
X0.9622Y-2.2543
X1.253Y-0.8543
X1.253Y-0.9543
X1.253Y-1.0543
X1.253Y-1.1543
X1.253Y-1.2543
X1.253Y-1.3543
X1.253Y-1.4543
X1.253Y-1.5543
X1.253Y-1.6543
X1.353Y-0.8543
X1.353Y-0.9543
X1.353Y-1.0543
X1.353Y-1.1543
X1.353Y-1.2543
X1.353Y-1.3543
X1.353Y-1.4543
X1.353Y-1.5543
X1.353Y-1.6543
T0
M30
