%TF.GenerationSoftware,KiCad,Pcbnew,(5.99.0-11691-gd9cf939ba1)*%
%TF.CreationDate,2021-08-18T15:14:57+12:00*%
%TF.ProjectId,pmod_ov7670,706d6f64-5f6f-4763-9736-37302e6b6963,rev?*%
%TF.SameCoordinates,Original*%
%TF.FileFunction,Copper,L1,Top*%
%TF.FilePolarity,Positive*%
%FSLAX46Y46*%
G04 Gerber Fmt 4.6, Leading zero omitted, Abs format (unit mm)*
G04 Created by KiCad (PCBNEW (5.99.0-11691-gd9cf939ba1)) date 2021-08-18 15:14:57*
%MOMM*%
%LPD*%
G01*
G04 APERTURE LIST*
%TA.AperFunction,ComponentPad*%
%ADD10R,1.700000X1.700000*%
%TD*%
%TA.AperFunction,ComponentPad*%
%ADD11O,1.700000X1.700000*%
%TD*%
G04 APERTURE END LIST*
D10*
%TO.P,J2,1,Pin_1*%
%TO.N,+3V3*%
X31825000Y-21700000D03*
D11*
%TO.P,J2,2,Pin_2*%
%TO.N,GND*%
X34365000Y-21700000D03*
%TO.P,J2,3,Pin_3*%
%TO.N,/CAM_SCL*%
X31825000Y-24240000D03*
%TO.P,J2,4,Pin_4*%
%TO.N,/F20*%
X34365000Y-24240000D03*
%TO.P,J2,5,Pin_5*%
%TO.N,/CAM_VSY*%
X31825000Y-26780000D03*
%TO.P,J2,6,Pin_6*%
%TO.N,/B20*%
X34365000Y-26780000D03*
%TO.P,J2,7,Pin_7*%
%TO.N,/CAM_PCLK*%
X31825000Y-29320000D03*
%TO.P,J2,8,Pin_8*%
%TO.N,/B18*%
X34365000Y-29320000D03*
%TO.P,J2,9,Pin_9*%
%TO.N,/CAM_D7*%
X31825000Y-31860000D03*
%TO.P,J2,10,Pin_10*%
%TO.N,/C17*%
X34365000Y-31860000D03*
%TO.P,J2,11,Pin_11*%
%TO.N,/CAM_D5*%
X31825000Y-34400000D03*
%TO.P,J2,12,Pin_12*%
%TO.N,/D3*%
X34365000Y-34400000D03*
%TO.P,J2,13,Pin_13*%
%TO.N,/C3*%
X31825000Y-36940000D03*
%TO.P,J2,14,Pin_14*%
%TO.N,/B4*%
X34365000Y-36940000D03*
%TO.P,J2,15,Pin_15*%
%TO.N,/A3*%
X31825000Y-39480000D03*
%TO.P,J2,16,Pin_16*%
%TO.N,/E3*%
X34365000Y-39480000D03*
%TO.P,J2,17,Pin_17*%
%TO.N,/B1*%
X31825000Y-42020000D03*
%TO.P,J2,18,Pin_18*%
%TO.N,/C2*%
X34365000Y-42020000D03*
%TD*%
D10*
%TO.P,J1,1,Pin_1*%
%TO.N,+3V3*%
X21900000Y-21700000D03*
D11*
%TO.P,J1,2,Pin_2*%
X24440000Y-21700000D03*
%TO.P,J1,3,Pin_3*%
%TO.N,GND*%
X21900000Y-24240000D03*
%TO.P,J1,4,Pin_4*%
X24440000Y-24240000D03*
%TO.P,J1,5,Pin_5*%
%TO.N,/CAM_SCL*%
X21900000Y-26780000D03*
%TO.P,J1,6,Pin_6*%
%TO.N,/F20*%
X24440000Y-26780000D03*
%TO.P,J1,7,Pin_7*%
%TO.N,/CAM_VSY*%
X21900000Y-29320000D03*
%TO.P,J1,8,Pin_8*%
%TO.N,/B20*%
X24440000Y-29320000D03*
%TO.P,J1,9,Pin_9*%
%TO.N,/CAM_PCLK*%
X21900000Y-31860000D03*
%TO.P,J1,10,Pin_10*%
%TO.N,/B18*%
X24440000Y-31860000D03*
%TO.P,J1,11,Pin_11*%
%TO.N,/CAM_D7*%
X21900000Y-34400000D03*
%TO.P,J1,12,Pin_12*%
%TO.N,/C17*%
X24440000Y-34400000D03*
%TO.P,J1,13,Pin_13*%
%TO.N,/CAM_D5*%
X21900000Y-36940000D03*
%TO.P,J1,14,Pin_14*%
%TO.N,/D3*%
X24440000Y-36940000D03*
%TO.P,J1,15,Pin_15*%
%TO.N,GND*%
X21900000Y-39480000D03*
%TO.P,J1,16,Pin_16*%
%TO.N,+5V*%
X24440000Y-39480000D03*
%TO.P,J1,17,Pin_17*%
%TO.N,/C3*%
X21900000Y-42020000D03*
%TO.P,J1,18,Pin_18*%
%TO.N,/B4*%
X24440000Y-42020000D03*
%TO.P,J1,19,Pin_19*%
%TO.N,+3V3*%
X21900000Y-44560000D03*
%TO.P,J1,20,Pin_20*%
X24440000Y-44560000D03*
%TO.P,J1,21,Pin_21*%
%TO.N,GND*%
X21900000Y-47100000D03*
%TO.P,J1,22,Pin_22*%
X24440000Y-47100000D03*
%TO.P,J1,23,Pin_23*%
%TO.N,/A3*%
X21900000Y-49640000D03*
%TO.P,J1,24,Pin_24*%
%TO.N,/E3*%
X24440000Y-49640000D03*
%TO.P,J1,25,Pin_25*%
%TO.N,/B1*%
X21900000Y-52180000D03*
%TO.P,J1,26,Pin_26*%
%TO.N,/C2*%
X24440000Y-52180000D03*
%TO.P,J1,27,Pin_27*%
%TO.N,/D2*%
X21900000Y-54720000D03*
%TO.P,J1,28,Pin_28*%
%TO.N,/C1*%
X24440000Y-54720000D03*
%TO.P,J1,29,Pin_29*%
%TO.N,/E2*%
X21900000Y-57260000D03*
%TO.P,J1,30,Pin_30*%
%TO.N,/D1*%
X24440000Y-57260000D03*
%TD*%
%TA.AperFunction,Conductor*%
%TO.N,+3V3*%
G36*
X37434121Y-18528002D02*
G01*
X37480614Y-18581658D01*
X37492000Y-18634000D01*
X37492000Y-60366000D01*
X37471998Y-60434121D01*
X37418342Y-60480614D01*
X37366000Y-60492000D01*
X18634000Y-60492000D01*
X18565879Y-60471998D01*
X18519386Y-60418342D01*
X18508000Y-60366000D01*
X18508000Y-47066695D01*
X20537251Y-47066695D01*
X20537548Y-47071848D01*
X20537548Y-47071851D01*
X20543011Y-47166590D01*
X20550110Y-47289715D01*
X20551247Y-47294761D01*
X20551248Y-47294767D01*
X20571119Y-47382939D01*
X20599222Y-47507639D01*
X20683266Y-47714616D01*
X20734019Y-47797438D01*
X20797291Y-47900688D01*
X20799987Y-47905088D01*
X20946250Y-48073938D01*
X21118126Y-48216632D01*
X21188595Y-48257811D01*
X21191445Y-48259476D01*
X21240169Y-48311114D01*
X21253240Y-48380897D01*
X21226509Y-48446669D01*
X21186055Y-48480027D01*
X21173607Y-48486507D01*
X21169474Y-48489610D01*
X21169471Y-48489612D01*
X21145247Y-48507800D01*
X20994965Y-48620635D01*
X20840629Y-48782138D01*
X20714743Y-48966680D01*
X20620688Y-49169305D01*
X20560989Y-49384570D01*
X20537251Y-49606695D01*
X20537548Y-49611848D01*
X20537548Y-49611851D01*
X20543011Y-49706590D01*
X20550110Y-49829715D01*
X20551247Y-49834761D01*
X20551248Y-49834767D01*
X20571119Y-49922939D01*
X20599222Y-50047639D01*
X20683266Y-50254616D01*
X20734019Y-50337438D01*
X20797291Y-50440688D01*
X20799987Y-50445088D01*
X20946250Y-50613938D01*
X21118126Y-50756632D01*
X21188595Y-50797811D01*
X21191445Y-50799476D01*
X21240169Y-50851114D01*
X21253240Y-50920897D01*
X21226509Y-50986669D01*
X21186055Y-51020027D01*
X21173607Y-51026507D01*
X21169474Y-51029610D01*
X21169471Y-51029612D01*
X21145247Y-51047800D01*
X20994965Y-51160635D01*
X20840629Y-51322138D01*
X20714743Y-51506680D01*
X20620688Y-51709305D01*
X20560989Y-51924570D01*
X20537251Y-52146695D01*
X20537548Y-52151848D01*
X20537548Y-52151851D01*
X20543011Y-52246590D01*
X20550110Y-52369715D01*
X20551247Y-52374761D01*
X20551248Y-52374767D01*
X20571119Y-52462939D01*
X20599222Y-52587639D01*
X20683266Y-52794616D01*
X20734019Y-52877438D01*
X20797291Y-52980688D01*
X20799987Y-52985088D01*
X20946250Y-53153938D01*
X21118126Y-53296632D01*
X21188595Y-53337811D01*
X21191445Y-53339476D01*
X21240169Y-53391114D01*
X21253240Y-53460897D01*
X21226509Y-53526669D01*
X21186055Y-53560027D01*
X21173607Y-53566507D01*
X21169474Y-53569610D01*
X21169471Y-53569612D01*
X21145247Y-53587800D01*
X20994965Y-53700635D01*
X20840629Y-53862138D01*
X20714743Y-54046680D01*
X20620688Y-54249305D01*
X20560989Y-54464570D01*
X20537251Y-54686695D01*
X20537548Y-54691848D01*
X20537548Y-54691851D01*
X20543011Y-54786590D01*
X20550110Y-54909715D01*
X20551247Y-54914761D01*
X20551248Y-54914767D01*
X20571119Y-55002939D01*
X20599222Y-55127639D01*
X20683266Y-55334616D01*
X20734019Y-55417438D01*
X20797291Y-55520688D01*
X20799987Y-55525088D01*
X20946250Y-55693938D01*
X21118126Y-55836632D01*
X21188595Y-55877811D01*
X21191445Y-55879476D01*
X21240169Y-55931114D01*
X21253240Y-56000897D01*
X21226509Y-56066669D01*
X21186055Y-56100027D01*
X21173607Y-56106507D01*
X21169474Y-56109610D01*
X21169471Y-56109612D01*
X21145247Y-56127800D01*
X20994965Y-56240635D01*
X20840629Y-56402138D01*
X20714743Y-56586680D01*
X20620688Y-56789305D01*
X20560989Y-57004570D01*
X20537251Y-57226695D01*
X20537548Y-57231848D01*
X20537548Y-57231851D01*
X20543011Y-57326590D01*
X20550110Y-57449715D01*
X20551247Y-57454761D01*
X20551248Y-57454767D01*
X20571119Y-57542939D01*
X20599222Y-57667639D01*
X20683266Y-57874616D01*
X20734019Y-57957438D01*
X20797291Y-58060688D01*
X20799987Y-58065088D01*
X20946250Y-58233938D01*
X21118126Y-58376632D01*
X21311000Y-58489338D01*
X21519692Y-58569030D01*
X21524760Y-58570061D01*
X21524763Y-58570062D01*
X21632017Y-58591883D01*
X21738597Y-58613567D01*
X21743772Y-58613757D01*
X21743774Y-58613757D01*
X21956673Y-58621564D01*
X21956677Y-58621564D01*
X21961837Y-58621753D01*
X21966957Y-58621097D01*
X21966959Y-58621097D01*
X22178288Y-58594025D01*
X22178289Y-58594025D01*
X22183416Y-58593368D01*
X22188366Y-58591883D01*
X22392429Y-58530661D01*
X22392434Y-58530659D01*
X22397384Y-58529174D01*
X22597994Y-58430896D01*
X22779860Y-58301173D01*
X22938096Y-58143489D01*
X22997594Y-58060689D01*
X23068453Y-57962077D01*
X23069776Y-57963028D01*
X23116645Y-57919857D01*
X23186580Y-57907625D01*
X23252026Y-57935144D01*
X23279875Y-57966994D01*
X23339987Y-58065088D01*
X23486250Y-58233938D01*
X23658126Y-58376632D01*
X23851000Y-58489338D01*
X24059692Y-58569030D01*
X24064760Y-58570061D01*
X24064763Y-58570062D01*
X24172017Y-58591883D01*
X24278597Y-58613567D01*
X24283772Y-58613757D01*
X24283774Y-58613757D01*
X24496673Y-58621564D01*
X24496677Y-58621564D01*
X24501837Y-58621753D01*
X24506957Y-58621097D01*
X24506959Y-58621097D01*
X24718288Y-58594025D01*
X24718289Y-58594025D01*
X24723416Y-58593368D01*
X24728366Y-58591883D01*
X24932429Y-58530661D01*
X24932434Y-58530659D01*
X24937384Y-58529174D01*
X25137994Y-58430896D01*
X25319860Y-58301173D01*
X25478096Y-58143489D01*
X25537594Y-58060689D01*
X25605435Y-57966277D01*
X25608453Y-57962077D01*
X25629320Y-57919857D01*
X25705136Y-57766453D01*
X25705137Y-57766451D01*
X25707430Y-57761811D01*
X25772370Y-57548069D01*
X25801529Y-57326590D01*
X25803156Y-57260000D01*
X25784852Y-57037361D01*
X25730431Y-56820702D01*
X25641354Y-56615840D01*
X25520014Y-56428277D01*
X25369670Y-56263051D01*
X25365619Y-56259852D01*
X25365615Y-56259848D01*
X25198414Y-56127800D01*
X25198410Y-56127798D01*
X25194359Y-56124598D01*
X25153053Y-56101796D01*
X25103084Y-56051364D01*
X25088312Y-55981921D01*
X25113428Y-55915516D01*
X25140780Y-55888909D01*
X25184603Y-55857650D01*
X25319860Y-55761173D01*
X25478096Y-55603489D01*
X25537594Y-55520689D01*
X25605435Y-55426277D01*
X25608453Y-55422077D01*
X25629320Y-55379857D01*
X25705136Y-55226453D01*
X25705137Y-55226451D01*
X25707430Y-55221811D01*
X25772370Y-55008069D01*
X25801529Y-54786590D01*
X25803156Y-54720000D01*
X25784852Y-54497361D01*
X25730431Y-54280702D01*
X25641354Y-54075840D01*
X25520014Y-53888277D01*
X25369670Y-53723051D01*
X25365619Y-53719852D01*
X25365615Y-53719848D01*
X25198414Y-53587800D01*
X25198410Y-53587798D01*
X25194359Y-53584598D01*
X25153053Y-53561796D01*
X25103084Y-53511364D01*
X25088312Y-53441921D01*
X25113428Y-53375516D01*
X25140780Y-53348909D01*
X25184603Y-53317650D01*
X25319860Y-53221173D01*
X25478096Y-53063489D01*
X25537594Y-52980689D01*
X25605435Y-52886277D01*
X25608453Y-52882077D01*
X25629320Y-52839857D01*
X25705136Y-52686453D01*
X25705137Y-52686451D01*
X25707430Y-52681811D01*
X25772370Y-52468069D01*
X25801529Y-52246590D01*
X25803156Y-52180000D01*
X25784852Y-51957361D01*
X25730431Y-51740702D01*
X25641354Y-51535840D01*
X25520014Y-51348277D01*
X25369670Y-51183051D01*
X25365619Y-51179852D01*
X25365615Y-51179848D01*
X25198414Y-51047800D01*
X25198410Y-51047798D01*
X25194359Y-51044598D01*
X25153053Y-51021796D01*
X25103084Y-50971364D01*
X25088312Y-50901921D01*
X25113428Y-50835516D01*
X25140780Y-50808909D01*
X25184603Y-50777650D01*
X25319860Y-50681173D01*
X25478096Y-50523489D01*
X25537594Y-50440689D01*
X25605435Y-50346277D01*
X25608453Y-50342077D01*
X25629320Y-50299857D01*
X25705136Y-50146453D01*
X25705137Y-50146451D01*
X25707430Y-50141811D01*
X25772370Y-49928069D01*
X25801529Y-49706590D01*
X25803156Y-49640000D01*
X25784852Y-49417361D01*
X25730431Y-49200702D01*
X25641354Y-48995840D01*
X25520014Y-48808277D01*
X25369670Y-48643051D01*
X25365619Y-48639852D01*
X25365615Y-48639848D01*
X25198414Y-48507800D01*
X25198410Y-48507798D01*
X25194359Y-48504598D01*
X25153053Y-48481796D01*
X25103084Y-48431364D01*
X25088312Y-48361921D01*
X25113428Y-48295516D01*
X25140780Y-48268909D01*
X25184603Y-48237650D01*
X25319860Y-48141173D01*
X25478096Y-47983489D01*
X25537594Y-47900689D01*
X25605435Y-47806277D01*
X25608453Y-47802077D01*
X25629320Y-47759857D01*
X25705136Y-47606453D01*
X25705137Y-47606451D01*
X25707430Y-47601811D01*
X25772370Y-47388069D01*
X25801529Y-47166590D01*
X25803156Y-47100000D01*
X25784852Y-46877361D01*
X25730431Y-46660702D01*
X25641354Y-46455840D01*
X25520014Y-46268277D01*
X25369670Y-46103051D01*
X25365619Y-46099852D01*
X25365615Y-46099848D01*
X25198414Y-45967800D01*
X25198410Y-45967798D01*
X25194359Y-45964598D01*
X25152569Y-45941529D01*
X25102598Y-45891097D01*
X25087826Y-45821654D01*
X25112942Y-45755248D01*
X25140294Y-45728641D01*
X25315328Y-45603792D01*
X25323200Y-45597139D01*
X25474052Y-45446812D01*
X25480730Y-45438965D01*
X25605003Y-45266020D01*
X25610313Y-45257183D01*
X25704670Y-45066267D01*
X25708469Y-45056672D01*
X25770377Y-44852910D01*
X25772555Y-44842837D01*
X25773986Y-44831962D01*
X25771775Y-44817778D01*
X25758617Y-44814000D01*
X20583225Y-44814000D01*
X20569694Y-44817973D01*
X20568257Y-44827966D01*
X20598565Y-44962446D01*
X20601645Y-44972275D01*
X20681770Y-45169603D01*
X20686413Y-45178794D01*
X20797694Y-45360388D01*
X20803777Y-45368699D01*
X20943213Y-45529667D01*
X20950580Y-45536883D01*
X21114434Y-45672916D01*
X21122881Y-45678831D01*
X21191969Y-45719203D01*
X21240693Y-45770842D01*
X21253764Y-45840625D01*
X21227033Y-45906396D01*
X21186584Y-45939752D01*
X21173607Y-45946507D01*
X21169474Y-45949610D01*
X21169471Y-45949612D01*
X21145247Y-45967800D01*
X20994965Y-46080635D01*
X20840629Y-46242138D01*
X20714743Y-46426680D01*
X20620688Y-46629305D01*
X20560989Y-46844570D01*
X20537251Y-47066695D01*
X18508000Y-47066695D01*
X18508000Y-24206695D01*
X20537251Y-24206695D01*
X20537548Y-24211848D01*
X20537548Y-24211851D01*
X20543011Y-24306590D01*
X20550110Y-24429715D01*
X20551247Y-24434761D01*
X20551248Y-24434767D01*
X20571119Y-24522939D01*
X20599222Y-24647639D01*
X20683266Y-24854616D01*
X20734019Y-24937438D01*
X20797291Y-25040688D01*
X20799987Y-25045088D01*
X20946250Y-25213938D01*
X21118126Y-25356632D01*
X21188595Y-25397811D01*
X21191445Y-25399476D01*
X21240169Y-25451114D01*
X21253240Y-25520897D01*
X21226509Y-25586669D01*
X21186055Y-25620027D01*
X21173607Y-25626507D01*
X21169474Y-25629610D01*
X21169471Y-25629612D01*
X21145247Y-25647800D01*
X20994965Y-25760635D01*
X20840629Y-25922138D01*
X20714743Y-26106680D01*
X20620688Y-26309305D01*
X20560989Y-26524570D01*
X20537251Y-26746695D01*
X20537548Y-26751848D01*
X20537548Y-26751851D01*
X20543011Y-26846590D01*
X20550110Y-26969715D01*
X20551247Y-26974761D01*
X20551248Y-26974767D01*
X20571119Y-27062939D01*
X20599222Y-27187639D01*
X20683266Y-27394616D01*
X20734019Y-27477438D01*
X20797291Y-27580688D01*
X20799987Y-27585088D01*
X20946250Y-27753938D01*
X21118126Y-27896632D01*
X21188595Y-27937811D01*
X21191445Y-27939476D01*
X21240169Y-27991114D01*
X21253240Y-28060897D01*
X21226509Y-28126669D01*
X21186055Y-28160027D01*
X21173607Y-28166507D01*
X21169474Y-28169610D01*
X21169471Y-28169612D01*
X21145247Y-28187800D01*
X20994965Y-28300635D01*
X20840629Y-28462138D01*
X20714743Y-28646680D01*
X20620688Y-28849305D01*
X20560989Y-29064570D01*
X20537251Y-29286695D01*
X20537548Y-29291848D01*
X20537548Y-29291851D01*
X20543011Y-29386590D01*
X20550110Y-29509715D01*
X20551247Y-29514761D01*
X20551248Y-29514767D01*
X20571119Y-29602939D01*
X20599222Y-29727639D01*
X20683266Y-29934616D01*
X20734019Y-30017438D01*
X20797291Y-30120688D01*
X20799987Y-30125088D01*
X20946250Y-30293938D01*
X21118126Y-30436632D01*
X21188595Y-30477811D01*
X21191445Y-30479476D01*
X21240169Y-30531114D01*
X21253240Y-30600897D01*
X21226509Y-30666669D01*
X21186055Y-30700027D01*
X21173607Y-30706507D01*
X21169474Y-30709610D01*
X21169471Y-30709612D01*
X21145247Y-30727800D01*
X20994965Y-30840635D01*
X20840629Y-31002138D01*
X20714743Y-31186680D01*
X20620688Y-31389305D01*
X20560989Y-31604570D01*
X20537251Y-31826695D01*
X20537548Y-31831848D01*
X20537548Y-31831851D01*
X20543011Y-31926590D01*
X20550110Y-32049715D01*
X20551247Y-32054761D01*
X20551248Y-32054767D01*
X20571119Y-32142939D01*
X20599222Y-32267639D01*
X20683266Y-32474616D01*
X20734019Y-32557438D01*
X20797291Y-32660688D01*
X20799987Y-32665088D01*
X20946250Y-32833938D01*
X21118126Y-32976632D01*
X21188595Y-33017811D01*
X21191445Y-33019476D01*
X21240169Y-33071114D01*
X21253240Y-33140897D01*
X21226509Y-33206669D01*
X21186055Y-33240027D01*
X21173607Y-33246507D01*
X21169474Y-33249610D01*
X21169471Y-33249612D01*
X21145247Y-33267800D01*
X20994965Y-33380635D01*
X20840629Y-33542138D01*
X20714743Y-33726680D01*
X20620688Y-33929305D01*
X20560989Y-34144570D01*
X20537251Y-34366695D01*
X20537548Y-34371848D01*
X20537548Y-34371851D01*
X20543011Y-34466590D01*
X20550110Y-34589715D01*
X20551247Y-34594761D01*
X20551248Y-34594767D01*
X20571119Y-34682939D01*
X20599222Y-34807639D01*
X20683266Y-35014616D01*
X20734019Y-35097438D01*
X20797291Y-35200688D01*
X20799987Y-35205088D01*
X20946250Y-35373938D01*
X21118126Y-35516632D01*
X21188595Y-35557811D01*
X21191445Y-35559476D01*
X21240169Y-35611114D01*
X21253240Y-35680897D01*
X21226509Y-35746669D01*
X21186055Y-35780027D01*
X21173607Y-35786507D01*
X21169474Y-35789610D01*
X21169471Y-35789612D01*
X21145247Y-35807800D01*
X20994965Y-35920635D01*
X20840629Y-36082138D01*
X20714743Y-36266680D01*
X20620688Y-36469305D01*
X20560989Y-36684570D01*
X20537251Y-36906695D01*
X20537548Y-36911848D01*
X20537548Y-36911851D01*
X20543011Y-37006590D01*
X20550110Y-37129715D01*
X20551247Y-37134761D01*
X20551248Y-37134767D01*
X20571119Y-37222939D01*
X20599222Y-37347639D01*
X20683266Y-37554616D01*
X20734019Y-37637438D01*
X20797291Y-37740688D01*
X20799987Y-37745088D01*
X20946250Y-37913938D01*
X21118126Y-38056632D01*
X21188595Y-38097811D01*
X21191445Y-38099476D01*
X21240169Y-38151114D01*
X21253240Y-38220897D01*
X21226509Y-38286669D01*
X21186055Y-38320027D01*
X21173607Y-38326507D01*
X21169474Y-38329610D01*
X21169471Y-38329612D01*
X21145247Y-38347800D01*
X20994965Y-38460635D01*
X20840629Y-38622138D01*
X20714743Y-38806680D01*
X20620688Y-39009305D01*
X20560989Y-39224570D01*
X20537251Y-39446695D01*
X20537548Y-39451848D01*
X20537548Y-39451851D01*
X20543011Y-39546590D01*
X20550110Y-39669715D01*
X20551247Y-39674761D01*
X20551248Y-39674767D01*
X20571119Y-39762939D01*
X20599222Y-39887639D01*
X20683266Y-40094616D01*
X20734019Y-40177438D01*
X20797291Y-40280688D01*
X20799987Y-40285088D01*
X20946250Y-40453938D01*
X21118126Y-40596632D01*
X21188595Y-40637811D01*
X21191445Y-40639476D01*
X21240169Y-40691114D01*
X21253240Y-40760897D01*
X21226509Y-40826669D01*
X21186055Y-40860027D01*
X21173607Y-40866507D01*
X21169474Y-40869610D01*
X21169471Y-40869612D01*
X21145247Y-40887800D01*
X20994965Y-41000635D01*
X20840629Y-41162138D01*
X20714743Y-41346680D01*
X20620688Y-41549305D01*
X20560989Y-41764570D01*
X20537251Y-41986695D01*
X20537548Y-41991848D01*
X20537548Y-41991851D01*
X20543011Y-42086590D01*
X20550110Y-42209715D01*
X20551247Y-42214761D01*
X20551248Y-42214767D01*
X20571119Y-42302939D01*
X20599222Y-42427639D01*
X20683266Y-42634616D01*
X20734019Y-42717438D01*
X20797291Y-42820688D01*
X20799987Y-42825088D01*
X20946250Y-42993938D01*
X21118126Y-43136632D01*
X21191955Y-43179774D01*
X21240679Y-43231412D01*
X21253750Y-43301195D01*
X21227019Y-43366967D01*
X21186562Y-43400327D01*
X21178457Y-43404546D01*
X21169738Y-43410036D01*
X20999433Y-43537905D01*
X20991726Y-43544748D01*
X20844590Y-43698717D01*
X20838104Y-43706727D01*
X20718098Y-43882649D01*
X20713000Y-43891623D01*
X20623338Y-44084783D01*
X20619775Y-44094470D01*
X20564389Y-44294183D01*
X20565912Y-44302607D01*
X20578292Y-44306000D01*
X25758344Y-44306000D01*
X25771875Y-44302027D01*
X25773180Y-44292947D01*
X25731214Y-44125875D01*
X25727894Y-44116124D01*
X25642972Y-43920814D01*
X25638105Y-43911739D01*
X25522426Y-43732926D01*
X25516136Y-43724757D01*
X25372806Y-43567240D01*
X25365273Y-43560215D01*
X25198139Y-43428222D01*
X25189556Y-43422520D01*
X25152602Y-43402120D01*
X25102631Y-43351687D01*
X25087859Y-43282245D01*
X25112975Y-43215839D01*
X25140327Y-43189232D01*
X25163797Y-43172491D01*
X25319860Y-43061173D01*
X25478096Y-42903489D01*
X25537594Y-42820689D01*
X25605435Y-42726277D01*
X25608453Y-42722077D01*
X25629320Y-42679857D01*
X25705136Y-42526453D01*
X25705137Y-42526451D01*
X25707430Y-42521811D01*
X25772370Y-42308069D01*
X25801529Y-42086590D01*
X25803156Y-42020000D01*
X25784852Y-41797361D01*
X25730431Y-41580702D01*
X25641354Y-41375840D01*
X25520014Y-41188277D01*
X25369670Y-41023051D01*
X25365619Y-41019852D01*
X25365615Y-41019848D01*
X25198414Y-40887800D01*
X25198410Y-40887798D01*
X25194359Y-40884598D01*
X25153053Y-40861796D01*
X25103084Y-40811364D01*
X25088312Y-40741921D01*
X25113428Y-40675516D01*
X25140780Y-40648909D01*
X25184603Y-40617650D01*
X25319860Y-40521173D01*
X25478096Y-40363489D01*
X25537594Y-40280689D01*
X25605435Y-40186277D01*
X25608453Y-40182077D01*
X25629320Y-40139857D01*
X25705136Y-39986453D01*
X25705137Y-39986451D01*
X25707430Y-39981811D01*
X25772370Y-39768069D01*
X25801529Y-39546590D01*
X25803156Y-39480000D01*
X25784852Y-39257361D01*
X25730431Y-39040702D01*
X25641354Y-38835840D01*
X25520014Y-38648277D01*
X25369670Y-38483051D01*
X25365619Y-38479852D01*
X25365615Y-38479848D01*
X25198414Y-38347800D01*
X25198410Y-38347798D01*
X25194359Y-38344598D01*
X25153053Y-38321796D01*
X25103084Y-38271364D01*
X25088312Y-38201921D01*
X25113428Y-38135516D01*
X25140780Y-38108909D01*
X25184603Y-38077650D01*
X25319860Y-37981173D01*
X25478096Y-37823489D01*
X25537594Y-37740689D01*
X25605435Y-37646277D01*
X25608453Y-37642077D01*
X25629320Y-37599857D01*
X25705136Y-37446453D01*
X25705137Y-37446451D01*
X25707430Y-37441811D01*
X25772370Y-37228069D01*
X25801529Y-37006590D01*
X25803156Y-36940000D01*
X25784852Y-36717361D01*
X25730431Y-36500702D01*
X25641354Y-36295840D01*
X25520014Y-36108277D01*
X25369670Y-35943051D01*
X25365619Y-35939852D01*
X25365615Y-35939848D01*
X25198414Y-35807800D01*
X25198410Y-35807798D01*
X25194359Y-35804598D01*
X25153053Y-35781796D01*
X25103084Y-35731364D01*
X25088312Y-35661921D01*
X25113428Y-35595516D01*
X25140780Y-35568909D01*
X25184603Y-35537650D01*
X25319860Y-35441173D01*
X25478096Y-35283489D01*
X25537594Y-35200689D01*
X25605435Y-35106277D01*
X25608453Y-35102077D01*
X25629320Y-35059857D01*
X25705136Y-34906453D01*
X25705137Y-34906451D01*
X25707430Y-34901811D01*
X25772370Y-34688069D01*
X25801529Y-34466590D01*
X25803156Y-34400000D01*
X25784852Y-34177361D01*
X25730431Y-33960702D01*
X25641354Y-33755840D01*
X25520014Y-33568277D01*
X25369670Y-33403051D01*
X25365619Y-33399852D01*
X25365615Y-33399848D01*
X25198414Y-33267800D01*
X25198410Y-33267798D01*
X25194359Y-33264598D01*
X25153053Y-33241796D01*
X25103084Y-33191364D01*
X25088312Y-33121921D01*
X25113428Y-33055516D01*
X25140780Y-33028909D01*
X25184603Y-32997650D01*
X25319860Y-32901173D01*
X25478096Y-32743489D01*
X25537594Y-32660689D01*
X25605435Y-32566277D01*
X25608453Y-32562077D01*
X25629320Y-32519857D01*
X25705136Y-32366453D01*
X25705137Y-32366451D01*
X25707430Y-32361811D01*
X25772370Y-32148069D01*
X25801529Y-31926590D01*
X25803156Y-31860000D01*
X25784852Y-31637361D01*
X25730431Y-31420702D01*
X25641354Y-31215840D01*
X25520014Y-31028277D01*
X25369670Y-30863051D01*
X25365619Y-30859852D01*
X25365615Y-30859848D01*
X25198414Y-30727800D01*
X25198410Y-30727798D01*
X25194359Y-30724598D01*
X25153053Y-30701796D01*
X25103084Y-30651364D01*
X25088312Y-30581921D01*
X25113428Y-30515516D01*
X25140780Y-30488909D01*
X25184603Y-30457650D01*
X25319860Y-30361173D01*
X25478096Y-30203489D01*
X25537594Y-30120689D01*
X25605435Y-30026277D01*
X25608453Y-30022077D01*
X25629320Y-29979857D01*
X25705136Y-29826453D01*
X25705137Y-29826451D01*
X25707430Y-29821811D01*
X25772370Y-29608069D01*
X25801529Y-29386590D01*
X25803156Y-29320000D01*
X25784852Y-29097361D01*
X25730431Y-28880702D01*
X25641354Y-28675840D01*
X25520014Y-28488277D01*
X25369670Y-28323051D01*
X25365619Y-28319852D01*
X25365615Y-28319848D01*
X25198414Y-28187800D01*
X25198410Y-28187798D01*
X25194359Y-28184598D01*
X25153053Y-28161796D01*
X25103084Y-28111364D01*
X25088312Y-28041921D01*
X25113428Y-27975516D01*
X25140780Y-27948909D01*
X25184603Y-27917650D01*
X25319860Y-27821173D01*
X25478096Y-27663489D01*
X25537594Y-27580689D01*
X25605435Y-27486277D01*
X25608453Y-27482077D01*
X25629320Y-27439857D01*
X25705136Y-27286453D01*
X25705137Y-27286451D01*
X25707430Y-27281811D01*
X25772370Y-27068069D01*
X25801529Y-26846590D01*
X25803156Y-26780000D01*
X25784852Y-26557361D01*
X25730431Y-26340702D01*
X25641354Y-26135840D01*
X25520014Y-25948277D01*
X25369670Y-25783051D01*
X25365619Y-25779852D01*
X25365615Y-25779848D01*
X25198414Y-25647800D01*
X25198410Y-25647798D01*
X25194359Y-25644598D01*
X25153053Y-25621796D01*
X25103084Y-25571364D01*
X25088312Y-25501921D01*
X25113428Y-25435516D01*
X25140780Y-25408909D01*
X25184603Y-25377650D01*
X25319860Y-25281173D01*
X25478096Y-25123489D01*
X25537594Y-25040689D01*
X25605435Y-24946277D01*
X25608453Y-24942077D01*
X25629320Y-24899857D01*
X25705136Y-24746453D01*
X25705137Y-24746451D01*
X25707430Y-24741811D01*
X25772370Y-24528069D01*
X25801529Y-24306590D01*
X25803156Y-24240000D01*
X25800418Y-24206695D01*
X30462251Y-24206695D01*
X30462548Y-24211848D01*
X30462548Y-24211851D01*
X30468011Y-24306590D01*
X30475110Y-24429715D01*
X30476247Y-24434761D01*
X30476248Y-24434767D01*
X30496119Y-24522939D01*
X30524222Y-24647639D01*
X30608266Y-24854616D01*
X30659019Y-24937438D01*
X30722291Y-25040688D01*
X30724987Y-25045088D01*
X30871250Y-25213938D01*
X31043126Y-25356632D01*
X31113595Y-25397811D01*
X31116445Y-25399476D01*
X31165169Y-25451114D01*
X31178240Y-25520897D01*
X31151509Y-25586669D01*
X31111055Y-25620027D01*
X31098607Y-25626507D01*
X31094474Y-25629610D01*
X31094471Y-25629612D01*
X31070247Y-25647800D01*
X30919965Y-25760635D01*
X30765629Y-25922138D01*
X30639743Y-26106680D01*
X30545688Y-26309305D01*
X30485989Y-26524570D01*
X30462251Y-26746695D01*
X30462548Y-26751848D01*
X30462548Y-26751851D01*
X30468011Y-26846590D01*
X30475110Y-26969715D01*
X30476247Y-26974761D01*
X30476248Y-26974767D01*
X30496119Y-27062939D01*
X30524222Y-27187639D01*
X30608266Y-27394616D01*
X30659019Y-27477438D01*
X30722291Y-27580688D01*
X30724987Y-27585088D01*
X30871250Y-27753938D01*
X31043126Y-27896632D01*
X31113595Y-27937811D01*
X31116445Y-27939476D01*
X31165169Y-27991114D01*
X31178240Y-28060897D01*
X31151509Y-28126669D01*
X31111055Y-28160027D01*
X31098607Y-28166507D01*
X31094474Y-28169610D01*
X31094471Y-28169612D01*
X31070247Y-28187800D01*
X30919965Y-28300635D01*
X30765629Y-28462138D01*
X30639743Y-28646680D01*
X30545688Y-28849305D01*
X30485989Y-29064570D01*
X30462251Y-29286695D01*
X30462548Y-29291848D01*
X30462548Y-29291851D01*
X30468011Y-29386590D01*
X30475110Y-29509715D01*
X30476247Y-29514761D01*
X30476248Y-29514767D01*
X30496119Y-29602939D01*
X30524222Y-29727639D01*
X30608266Y-29934616D01*
X30659019Y-30017438D01*
X30722291Y-30120688D01*
X30724987Y-30125088D01*
X30871250Y-30293938D01*
X31043126Y-30436632D01*
X31113595Y-30477811D01*
X31116445Y-30479476D01*
X31165169Y-30531114D01*
X31178240Y-30600897D01*
X31151509Y-30666669D01*
X31111055Y-30700027D01*
X31098607Y-30706507D01*
X31094474Y-30709610D01*
X31094471Y-30709612D01*
X31070247Y-30727800D01*
X30919965Y-30840635D01*
X30765629Y-31002138D01*
X30639743Y-31186680D01*
X30545688Y-31389305D01*
X30485989Y-31604570D01*
X30462251Y-31826695D01*
X30462548Y-31831848D01*
X30462548Y-31831851D01*
X30468011Y-31926590D01*
X30475110Y-32049715D01*
X30476247Y-32054761D01*
X30476248Y-32054767D01*
X30496119Y-32142939D01*
X30524222Y-32267639D01*
X30608266Y-32474616D01*
X30659019Y-32557438D01*
X30722291Y-32660688D01*
X30724987Y-32665088D01*
X30871250Y-32833938D01*
X31043126Y-32976632D01*
X31113595Y-33017811D01*
X31116445Y-33019476D01*
X31165169Y-33071114D01*
X31178240Y-33140897D01*
X31151509Y-33206669D01*
X31111055Y-33240027D01*
X31098607Y-33246507D01*
X31094474Y-33249610D01*
X31094471Y-33249612D01*
X31070247Y-33267800D01*
X30919965Y-33380635D01*
X30765629Y-33542138D01*
X30639743Y-33726680D01*
X30545688Y-33929305D01*
X30485989Y-34144570D01*
X30462251Y-34366695D01*
X30462548Y-34371848D01*
X30462548Y-34371851D01*
X30468011Y-34466590D01*
X30475110Y-34589715D01*
X30476247Y-34594761D01*
X30476248Y-34594767D01*
X30496119Y-34682939D01*
X30524222Y-34807639D01*
X30608266Y-35014616D01*
X30659019Y-35097438D01*
X30722291Y-35200688D01*
X30724987Y-35205088D01*
X30871250Y-35373938D01*
X31043126Y-35516632D01*
X31113595Y-35557811D01*
X31116445Y-35559476D01*
X31165169Y-35611114D01*
X31178240Y-35680897D01*
X31151509Y-35746669D01*
X31111055Y-35780027D01*
X31098607Y-35786507D01*
X31094474Y-35789610D01*
X31094471Y-35789612D01*
X31070247Y-35807800D01*
X30919965Y-35920635D01*
X30765629Y-36082138D01*
X30639743Y-36266680D01*
X30545688Y-36469305D01*
X30485989Y-36684570D01*
X30462251Y-36906695D01*
X30462548Y-36911848D01*
X30462548Y-36911851D01*
X30468011Y-37006590D01*
X30475110Y-37129715D01*
X30476247Y-37134761D01*
X30476248Y-37134767D01*
X30496119Y-37222939D01*
X30524222Y-37347639D01*
X30608266Y-37554616D01*
X30659019Y-37637438D01*
X30722291Y-37740688D01*
X30724987Y-37745088D01*
X30871250Y-37913938D01*
X31043126Y-38056632D01*
X31113595Y-38097811D01*
X31116445Y-38099476D01*
X31165169Y-38151114D01*
X31178240Y-38220897D01*
X31151509Y-38286669D01*
X31111055Y-38320027D01*
X31098607Y-38326507D01*
X31094474Y-38329610D01*
X31094471Y-38329612D01*
X31070247Y-38347800D01*
X30919965Y-38460635D01*
X30765629Y-38622138D01*
X30639743Y-38806680D01*
X30545688Y-39009305D01*
X30485989Y-39224570D01*
X30462251Y-39446695D01*
X30462548Y-39451848D01*
X30462548Y-39451851D01*
X30468011Y-39546590D01*
X30475110Y-39669715D01*
X30476247Y-39674761D01*
X30476248Y-39674767D01*
X30496119Y-39762939D01*
X30524222Y-39887639D01*
X30608266Y-40094616D01*
X30659019Y-40177438D01*
X30722291Y-40280688D01*
X30724987Y-40285088D01*
X30871250Y-40453938D01*
X31043126Y-40596632D01*
X31113595Y-40637811D01*
X31116445Y-40639476D01*
X31165169Y-40691114D01*
X31178240Y-40760897D01*
X31151509Y-40826669D01*
X31111055Y-40860027D01*
X31098607Y-40866507D01*
X31094474Y-40869610D01*
X31094471Y-40869612D01*
X31070247Y-40887800D01*
X30919965Y-41000635D01*
X30765629Y-41162138D01*
X30639743Y-41346680D01*
X30545688Y-41549305D01*
X30485989Y-41764570D01*
X30462251Y-41986695D01*
X30462548Y-41991848D01*
X30462548Y-41991851D01*
X30468011Y-42086590D01*
X30475110Y-42209715D01*
X30476247Y-42214761D01*
X30476248Y-42214767D01*
X30496119Y-42302939D01*
X30524222Y-42427639D01*
X30608266Y-42634616D01*
X30659019Y-42717438D01*
X30722291Y-42820688D01*
X30724987Y-42825088D01*
X30871250Y-42993938D01*
X31043126Y-43136632D01*
X31236000Y-43249338D01*
X31444692Y-43329030D01*
X31449760Y-43330061D01*
X31449763Y-43330062D01*
X31556054Y-43351687D01*
X31663597Y-43373567D01*
X31668772Y-43373757D01*
X31668774Y-43373757D01*
X31881673Y-43381564D01*
X31881677Y-43381564D01*
X31886837Y-43381753D01*
X31891957Y-43381097D01*
X31891959Y-43381097D01*
X32103288Y-43354025D01*
X32103289Y-43354025D01*
X32108416Y-43353368D01*
X32114019Y-43351687D01*
X32317429Y-43290661D01*
X32317434Y-43290659D01*
X32322384Y-43289174D01*
X32522994Y-43190896D01*
X32704860Y-43061173D01*
X32863096Y-42903489D01*
X32922594Y-42820689D01*
X32993453Y-42722077D01*
X32994776Y-42723028D01*
X33041645Y-42679857D01*
X33111580Y-42667625D01*
X33177026Y-42695144D01*
X33204875Y-42726994D01*
X33264987Y-42825088D01*
X33411250Y-42993938D01*
X33583126Y-43136632D01*
X33776000Y-43249338D01*
X33984692Y-43329030D01*
X33989760Y-43330061D01*
X33989763Y-43330062D01*
X34096054Y-43351687D01*
X34203597Y-43373567D01*
X34208772Y-43373757D01*
X34208774Y-43373757D01*
X34421673Y-43381564D01*
X34421677Y-43381564D01*
X34426837Y-43381753D01*
X34431957Y-43381097D01*
X34431959Y-43381097D01*
X34643288Y-43354025D01*
X34643289Y-43354025D01*
X34648416Y-43353368D01*
X34654019Y-43351687D01*
X34857429Y-43290661D01*
X34857434Y-43290659D01*
X34862384Y-43289174D01*
X35062994Y-43190896D01*
X35244860Y-43061173D01*
X35403096Y-42903489D01*
X35462594Y-42820689D01*
X35530435Y-42726277D01*
X35533453Y-42722077D01*
X35554320Y-42679857D01*
X35630136Y-42526453D01*
X35630137Y-42526451D01*
X35632430Y-42521811D01*
X35697370Y-42308069D01*
X35726529Y-42086590D01*
X35728156Y-42020000D01*
X35709852Y-41797361D01*
X35655431Y-41580702D01*
X35566354Y-41375840D01*
X35445014Y-41188277D01*
X35294670Y-41023051D01*
X35290619Y-41019852D01*
X35290615Y-41019848D01*
X35123414Y-40887800D01*
X35123410Y-40887798D01*
X35119359Y-40884598D01*
X35078053Y-40861796D01*
X35028084Y-40811364D01*
X35013312Y-40741921D01*
X35038428Y-40675516D01*
X35065780Y-40648909D01*
X35109603Y-40617650D01*
X35244860Y-40521173D01*
X35403096Y-40363489D01*
X35462594Y-40280689D01*
X35530435Y-40186277D01*
X35533453Y-40182077D01*
X35554320Y-40139857D01*
X35630136Y-39986453D01*
X35630137Y-39986451D01*
X35632430Y-39981811D01*
X35697370Y-39768069D01*
X35726529Y-39546590D01*
X35728156Y-39480000D01*
X35709852Y-39257361D01*
X35655431Y-39040702D01*
X35566354Y-38835840D01*
X35445014Y-38648277D01*
X35294670Y-38483051D01*
X35290619Y-38479852D01*
X35290615Y-38479848D01*
X35123414Y-38347800D01*
X35123410Y-38347798D01*
X35119359Y-38344598D01*
X35078053Y-38321796D01*
X35028084Y-38271364D01*
X35013312Y-38201921D01*
X35038428Y-38135516D01*
X35065780Y-38108909D01*
X35109603Y-38077650D01*
X35244860Y-37981173D01*
X35403096Y-37823489D01*
X35462594Y-37740689D01*
X35530435Y-37646277D01*
X35533453Y-37642077D01*
X35554320Y-37599857D01*
X35630136Y-37446453D01*
X35630137Y-37446451D01*
X35632430Y-37441811D01*
X35697370Y-37228069D01*
X35726529Y-37006590D01*
X35728156Y-36940000D01*
X35709852Y-36717361D01*
X35655431Y-36500702D01*
X35566354Y-36295840D01*
X35445014Y-36108277D01*
X35294670Y-35943051D01*
X35290619Y-35939852D01*
X35290615Y-35939848D01*
X35123414Y-35807800D01*
X35123410Y-35807798D01*
X35119359Y-35804598D01*
X35078053Y-35781796D01*
X35028084Y-35731364D01*
X35013312Y-35661921D01*
X35038428Y-35595516D01*
X35065780Y-35568909D01*
X35109603Y-35537650D01*
X35244860Y-35441173D01*
X35403096Y-35283489D01*
X35462594Y-35200689D01*
X35530435Y-35106277D01*
X35533453Y-35102077D01*
X35554320Y-35059857D01*
X35630136Y-34906453D01*
X35630137Y-34906451D01*
X35632430Y-34901811D01*
X35697370Y-34688069D01*
X35726529Y-34466590D01*
X35728156Y-34400000D01*
X35709852Y-34177361D01*
X35655431Y-33960702D01*
X35566354Y-33755840D01*
X35445014Y-33568277D01*
X35294670Y-33403051D01*
X35290619Y-33399852D01*
X35290615Y-33399848D01*
X35123414Y-33267800D01*
X35123410Y-33267798D01*
X35119359Y-33264598D01*
X35078053Y-33241796D01*
X35028084Y-33191364D01*
X35013312Y-33121921D01*
X35038428Y-33055516D01*
X35065780Y-33028909D01*
X35109603Y-32997650D01*
X35244860Y-32901173D01*
X35403096Y-32743489D01*
X35462594Y-32660689D01*
X35530435Y-32566277D01*
X35533453Y-32562077D01*
X35554320Y-32519857D01*
X35630136Y-32366453D01*
X35630137Y-32366451D01*
X35632430Y-32361811D01*
X35697370Y-32148069D01*
X35726529Y-31926590D01*
X35728156Y-31860000D01*
X35709852Y-31637361D01*
X35655431Y-31420702D01*
X35566354Y-31215840D01*
X35445014Y-31028277D01*
X35294670Y-30863051D01*
X35290619Y-30859852D01*
X35290615Y-30859848D01*
X35123414Y-30727800D01*
X35123410Y-30727798D01*
X35119359Y-30724598D01*
X35078053Y-30701796D01*
X35028084Y-30651364D01*
X35013312Y-30581921D01*
X35038428Y-30515516D01*
X35065780Y-30488909D01*
X35109603Y-30457650D01*
X35244860Y-30361173D01*
X35403096Y-30203489D01*
X35462594Y-30120689D01*
X35530435Y-30026277D01*
X35533453Y-30022077D01*
X35554320Y-29979857D01*
X35630136Y-29826453D01*
X35630137Y-29826451D01*
X35632430Y-29821811D01*
X35697370Y-29608069D01*
X35726529Y-29386590D01*
X35728156Y-29320000D01*
X35709852Y-29097361D01*
X35655431Y-28880702D01*
X35566354Y-28675840D01*
X35445014Y-28488277D01*
X35294670Y-28323051D01*
X35290619Y-28319852D01*
X35290615Y-28319848D01*
X35123414Y-28187800D01*
X35123410Y-28187798D01*
X35119359Y-28184598D01*
X35078053Y-28161796D01*
X35028084Y-28111364D01*
X35013312Y-28041921D01*
X35038428Y-27975516D01*
X35065780Y-27948909D01*
X35109603Y-27917650D01*
X35244860Y-27821173D01*
X35403096Y-27663489D01*
X35462594Y-27580689D01*
X35530435Y-27486277D01*
X35533453Y-27482077D01*
X35554320Y-27439857D01*
X35630136Y-27286453D01*
X35630137Y-27286451D01*
X35632430Y-27281811D01*
X35697370Y-27068069D01*
X35726529Y-26846590D01*
X35728156Y-26780000D01*
X35709852Y-26557361D01*
X35655431Y-26340702D01*
X35566354Y-26135840D01*
X35445014Y-25948277D01*
X35294670Y-25783051D01*
X35290619Y-25779852D01*
X35290615Y-25779848D01*
X35123414Y-25647800D01*
X35123410Y-25647798D01*
X35119359Y-25644598D01*
X35078053Y-25621796D01*
X35028084Y-25571364D01*
X35013312Y-25501921D01*
X35038428Y-25435516D01*
X35065780Y-25408909D01*
X35109603Y-25377650D01*
X35244860Y-25281173D01*
X35403096Y-25123489D01*
X35462594Y-25040689D01*
X35530435Y-24946277D01*
X35533453Y-24942077D01*
X35554320Y-24899857D01*
X35630136Y-24746453D01*
X35630137Y-24746451D01*
X35632430Y-24741811D01*
X35697370Y-24528069D01*
X35726529Y-24306590D01*
X35728156Y-24240000D01*
X35709852Y-24017361D01*
X35655431Y-23800702D01*
X35566354Y-23595840D01*
X35445014Y-23408277D01*
X35294670Y-23243051D01*
X35290619Y-23239852D01*
X35290615Y-23239848D01*
X35123414Y-23107800D01*
X35123410Y-23107798D01*
X35119359Y-23104598D01*
X35078053Y-23081796D01*
X35028084Y-23031364D01*
X35013312Y-22961921D01*
X35038428Y-22895516D01*
X35065780Y-22868909D01*
X35109603Y-22837650D01*
X35244860Y-22741173D01*
X35403096Y-22583489D01*
X35533453Y-22402077D01*
X35632430Y-22201811D01*
X35697370Y-21988069D01*
X35726529Y-21766590D01*
X35728156Y-21700000D01*
X35709852Y-21477361D01*
X35655431Y-21260702D01*
X35566354Y-21055840D01*
X35445014Y-20868277D01*
X35294670Y-20703051D01*
X35290619Y-20699852D01*
X35290615Y-20699848D01*
X35123414Y-20567800D01*
X35123410Y-20567798D01*
X35119359Y-20564598D01*
X35083028Y-20544542D01*
X34991970Y-20494276D01*
X34923789Y-20456638D01*
X34918920Y-20454914D01*
X34918916Y-20454912D01*
X34718087Y-20383795D01*
X34718083Y-20383794D01*
X34713212Y-20382069D01*
X34708119Y-20381162D01*
X34708116Y-20381161D01*
X34498373Y-20343800D01*
X34498367Y-20343799D01*
X34493284Y-20342894D01*
X34419452Y-20341992D01*
X34275081Y-20340228D01*
X34275079Y-20340228D01*
X34269911Y-20340165D01*
X34049091Y-20373955D01*
X33836756Y-20443357D01*
X33638607Y-20546507D01*
X33634474Y-20549610D01*
X33634471Y-20549612D01*
X33551450Y-20611946D01*
X33459965Y-20680635D01*
X33456393Y-20684373D01*
X33378898Y-20765466D01*
X33317374Y-20800895D01*
X33246462Y-20797438D01*
X33188676Y-20756192D01*
X33169823Y-20722644D01*
X33128324Y-20611946D01*
X33119786Y-20596351D01*
X33043285Y-20494276D01*
X33030724Y-20481715D01*
X32928649Y-20405214D01*
X32913054Y-20396676D01*
X32792606Y-20351522D01*
X32777351Y-20347895D01*
X32726486Y-20342369D01*
X32719672Y-20342000D01*
X32097115Y-20342000D01*
X32081876Y-20346475D01*
X32080671Y-20347865D01*
X32079000Y-20355548D01*
X32079000Y-21828000D01*
X32058998Y-21896121D01*
X32005342Y-21942614D01*
X31953000Y-21954000D01*
X30485116Y-21954000D01*
X30469877Y-21958475D01*
X30468672Y-21959865D01*
X30467001Y-21967548D01*
X30467001Y-22594669D01*
X30467371Y-22601490D01*
X30472895Y-22652352D01*
X30476521Y-22667604D01*
X30521676Y-22788054D01*
X30530214Y-22803649D01*
X30606715Y-22905724D01*
X30619276Y-22918285D01*
X30721351Y-22994786D01*
X30736946Y-23003324D01*
X30845827Y-23044142D01*
X30902591Y-23086784D01*
X30927291Y-23153345D01*
X30912083Y-23222694D01*
X30892691Y-23249175D01*
X30769200Y-23378401D01*
X30765629Y-23382138D01*
X30639743Y-23566680D01*
X30545688Y-23769305D01*
X30485989Y-23984570D01*
X30462251Y-24206695D01*
X25800418Y-24206695D01*
X25784852Y-24017361D01*
X25730431Y-23800702D01*
X25641354Y-23595840D01*
X25520014Y-23408277D01*
X25369670Y-23243051D01*
X25365619Y-23239852D01*
X25365615Y-23239848D01*
X25198414Y-23107800D01*
X25198410Y-23107798D01*
X25194359Y-23104598D01*
X25152569Y-23081529D01*
X25102598Y-23031097D01*
X25087826Y-22961654D01*
X25112942Y-22895248D01*
X25140294Y-22868641D01*
X25315328Y-22743792D01*
X25323200Y-22737139D01*
X25474052Y-22586812D01*
X25480730Y-22578965D01*
X25605003Y-22406020D01*
X25610313Y-22397183D01*
X25704670Y-22206267D01*
X25708469Y-22196672D01*
X25770377Y-21992910D01*
X25772555Y-21982837D01*
X25773986Y-21971962D01*
X25771775Y-21957778D01*
X25758617Y-21954000D01*
X20560116Y-21954000D01*
X20544877Y-21958475D01*
X20543672Y-21959865D01*
X20542001Y-21967548D01*
X20542001Y-22594669D01*
X20542371Y-22601490D01*
X20547895Y-22652352D01*
X20551521Y-22667604D01*
X20596676Y-22788054D01*
X20605214Y-22803649D01*
X20681715Y-22905724D01*
X20694276Y-22918285D01*
X20796351Y-22994786D01*
X20811946Y-23003324D01*
X20920827Y-23044142D01*
X20977591Y-23086784D01*
X21002291Y-23153345D01*
X20987083Y-23222694D01*
X20967691Y-23249175D01*
X20844200Y-23378401D01*
X20840629Y-23382138D01*
X20714743Y-23566680D01*
X20620688Y-23769305D01*
X20560989Y-23984570D01*
X20537251Y-24206695D01*
X18508000Y-24206695D01*
X18508000Y-20805328D01*
X20542000Y-20805328D01*
X20542000Y-21427885D01*
X20546475Y-21443124D01*
X20547865Y-21444329D01*
X20555548Y-21446000D01*
X21627885Y-21446000D01*
X21643124Y-21441525D01*
X21644329Y-21440135D01*
X21646000Y-21432452D01*
X21646000Y-20360116D01*
X21644659Y-20355548D01*
X22154000Y-20355548D01*
X22154000Y-21427885D01*
X22158475Y-21443124D01*
X22159865Y-21444329D01*
X22167548Y-21446000D01*
X24167885Y-21446000D01*
X24183124Y-21441525D01*
X24184329Y-21440135D01*
X24186000Y-21432452D01*
X24186000Y-20384989D01*
X24694000Y-20384989D01*
X24694000Y-21427885D01*
X24698475Y-21443124D01*
X24699865Y-21444329D01*
X24707548Y-21446000D01*
X25758344Y-21446000D01*
X25771875Y-21442027D01*
X25773180Y-21432947D01*
X25731214Y-21265875D01*
X25727894Y-21256124D01*
X25642972Y-21060814D01*
X25638105Y-21051739D01*
X25522426Y-20872926D01*
X25516136Y-20864757D01*
X25462060Y-20805328D01*
X30467000Y-20805328D01*
X30467000Y-21427885D01*
X30471475Y-21443124D01*
X30472865Y-21444329D01*
X30480548Y-21446000D01*
X31552885Y-21446000D01*
X31568124Y-21441525D01*
X31569329Y-21440135D01*
X31571000Y-21432452D01*
X31571000Y-20360116D01*
X31566525Y-20344877D01*
X31565135Y-20343672D01*
X31557452Y-20342001D01*
X30930331Y-20342001D01*
X30923510Y-20342371D01*
X30872648Y-20347895D01*
X30857396Y-20351521D01*
X30736946Y-20396676D01*
X30721351Y-20405214D01*
X30619276Y-20481715D01*
X30606715Y-20494276D01*
X30530214Y-20596351D01*
X30521676Y-20611946D01*
X30476522Y-20732394D01*
X30472895Y-20747649D01*
X30467369Y-20798514D01*
X30467000Y-20805328D01*
X25462060Y-20805328D01*
X25372806Y-20707240D01*
X25365273Y-20700215D01*
X25198139Y-20568222D01*
X25189552Y-20562517D01*
X25003117Y-20459599D01*
X24993705Y-20455369D01*
X24792959Y-20384280D01*
X24782988Y-20381646D01*
X24711837Y-20368972D01*
X24698540Y-20370432D01*
X24694000Y-20384989D01*
X24186000Y-20384989D01*
X24186000Y-20383102D01*
X24182082Y-20369758D01*
X24167806Y-20367771D01*
X24129324Y-20373660D01*
X24119288Y-20376051D01*
X23916868Y-20442212D01*
X23907359Y-20446209D01*
X23718463Y-20544542D01*
X23709738Y-20550036D01*
X23539433Y-20677905D01*
X23531726Y-20684748D01*
X23454094Y-20765985D01*
X23392570Y-20801415D01*
X23321657Y-20797958D01*
X23263871Y-20756712D01*
X23245018Y-20723164D01*
X23203324Y-20611946D01*
X23194786Y-20596351D01*
X23118285Y-20494276D01*
X23105724Y-20481715D01*
X23003649Y-20405214D01*
X22988054Y-20396676D01*
X22867606Y-20351522D01*
X22852351Y-20347895D01*
X22801486Y-20342369D01*
X22794672Y-20342000D01*
X22172115Y-20342000D01*
X22156876Y-20346475D01*
X22155671Y-20347865D01*
X22154000Y-20355548D01*
X21644659Y-20355548D01*
X21641525Y-20344877D01*
X21640135Y-20343672D01*
X21632452Y-20342001D01*
X21005331Y-20342001D01*
X20998510Y-20342371D01*
X20947648Y-20347895D01*
X20932396Y-20351521D01*
X20811946Y-20396676D01*
X20796351Y-20405214D01*
X20694276Y-20481715D01*
X20681715Y-20494276D01*
X20605214Y-20596351D01*
X20596676Y-20611946D01*
X20551522Y-20732394D01*
X20547895Y-20747649D01*
X20542369Y-20798514D01*
X20542000Y-20805328D01*
X18508000Y-20805328D01*
X18508000Y-18634000D01*
X18528002Y-18565879D01*
X18581658Y-18519386D01*
X18634000Y-18508000D01*
X37366000Y-18508000D01*
X37434121Y-18528002D01*
G37*
%TD.AperFunction*%
%TD*%
M02*
